<?xml version="1.0" encoding="us-ascii" standalone="no"?><svg xmlns="http://www.w3.org/2000/svg" xmlns:xlink="http://www.w3.org/1999/xlink" contentStyleType="text/css" height="2653px" preserveAspectRatio="none" style="width:1596px;height:2653px;background:#FFFFFF;" version="1.1" viewBox="0 0 1596 2653" width="1596px" zoomAndPan="magnify"><defs/><g><rect fill="none" height="1003.5703" style="stroke:#000000;stroke-width:1.5;" width="1569" x="10" y="143.9609"/><rect fill="none" height="776.1094" style="stroke:#000000;stroke-width:1.5;" width="1549" x="20" y="364.4219"/><rect fill="none" height="381.0547" style="stroke:#000000;stroke-width:1.5;" width="1529" x="30" y="752.4766"/><rect fill="none" height="647.2188" style="stroke:#000000;stroke-width:1.5;" width="1559" x="20" y="1205.8828"/><rect fill="none" height="232.8125" style="stroke:#000000;stroke-width:1.5;" width="1539" x="30" y="1352.6406"/><rect fill="none" height="79.0547" style="stroke:#000000;stroke-width:1.5;" width="525" x="1034" y="1438.6953"/><rect fill="none" height="185.9453" style="stroke:#000000;stroke-width:1.5;" width="1145" x="30" y="1599.4531"/><rect fill="none" height="384.5703" style="stroke:#000000;stroke-width:1.5;" width="1549" x="20" y="1911.4531"/><rect fill="none" height="139.7578" style="stroke:#000000;stroke-width:1.5;" width="1529" x="30" y="2149.2656"/><rect fill="none" height="200.4609" style="stroke:#000000;stroke-width:1.5;" width="1529" x="30" y="2354.375"/><line style="stroke:#181818;stroke-width:0.5;stroke-dasharray:5.0,5.0;" x1="57" x2="57" y1="82.6094" y2="2571.8359"/><line style="stroke:#181818;stroke-width:0.5;stroke-dasharray:5.0,5.0;" x1="315" x2="315" y1="82.6094" y2="2571.8359"/><line style="stroke:#181818;stroke-width:0.5;stroke-dasharray:5.0,5.0;" x1="562.5" x2="562.5" y1="82.6094" y2="2571.8359"/><line style="stroke:#181818;stroke-width:0.5;stroke-dasharray:5.0,5.0;" x1="774" x2="774" y1="82.6094" y2="2571.8359"/><line style="stroke:#181818;stroke-width:0.5;stroke-dasharray:5.0,5.0;" x1="950" x2="950" y1="82.6094" y2="2571.8359"/><line style="stroke:#181818;stroke-width:0.5;stroke-dasharray:5.0,5.0;" x1="1104" x2="1104" y1="82.6094" y2="2571.8359"/><line style="stroke:#181818;stroke-width:0.5;stroke-dasharray:5.0,5.0;" x1="1241" x2="1241" y1="82.6094" y2="2571.8359"/><line style="stroke:#181818;stroke-width:0.5;stroke-dasharray:5.0,5.0;" x1="1390" x2="1390" y1="82.6094" y2="2571.8359"/><line style="stroke:#181818;stroke-width:0.5;stroke-dasharray:5.0,5.0;" x1="1498" x2="1498" y1="82.6094" y2="2571.8359"/><text fill="#000000" font-family="sans-serif" font-size="14" lengthAdjust="spacing" textLength="29" x="40" y="79.5332">User</text><ellipse cx="57.5" cy="13.5" fill="#E2E2F0" rx="8" ry="8" style="stroke:#181818;stroke-width:0.5;"/><path d="M57.5,21.5 L57.5,48.5 M44.5,29.5 L70.5,29.5 M57.5,48.5 L44.5,63.5 M57.5,48.5 L70.5,63.5 " fill="none" style="stroke:#181818;stroke-width:0.5;"/><text fill="#000000" font-family="sans-serif" font-size="14" lengthAdjust="spacing" textLength="29" x="40" y="2585.3691">User</text><ellipse cx="57.5" cy="2596.9453" fill="#E2E2F0" rx="8" ry="8" style="stroke:#181818;stroke-width:0.5;"/><path d="M57.5,2604.9453 L57.5,2631.9453 M44.5,2612.9453 L70.5,2612.9453 M57.5,2631.9453 L44.5,2646.9453 M57.5,2631.9453 L70.5,2646.9453 " fill="none" style="stroke:#181818;stroke-width:0.5;"/><rect fill="#E2E2F0" height="31.6094" rx="2.5" ry="2.5" style="stroke:#181818;stroke-width:0.5;" width="105" x="263" y="50"/><text fill="#000000" font-family="sans-serif" font-size="14" lengthAdjust="spacing" textLength="91" x="270" y="71.5332">NiotoShield Kit</text><rect fill="#E2E2F0" height="31.6094" rx="2.5" ry="2.5" style="stroke:#181818;stroke-width:0.5;" width="105" x="263" y="2570.8359"/><text fill="#000000" font-family="sans-serif" font-size="14" lengthAdjust="spacing" textLength="91" x="270" y="2592.3691">NiotoShield Kit</text><rect fill="#E2E2F0" height="31.6094" rx="2.5" ry="2.5" style="stroke:#181818;stroke-width:0.5;" width="170" x="477.5" y="50"/><text fill="#000000" font-family="sans-serif" font-size="14" lengthAdjust="spacing" textLength="156" x="484.5" y="71.5332">Face Processing Module</text><rect fill="#E2E2F0" height="31.6094" rx="2.5" ry="2.5" style="stroke:#181818;stroke-width:0.5;" width="170" x="477.5" y="2570.8359"/><text fill="#000000" font-family="sans-serif" font-size="14" lengthAdjust="spacing" textLength="156" x="484.5" y="2592.3691">Face Processing Module</text><rect fill="#E2E2F0" height="31.6094" rx="2.5" ry="2.5" style="stroke:#181818;stroke-width:0.5;" width="141" x="704" y="50"/><text fill="#000000" font-family="sans-serif" font-size="14" lengthAdjust="spacing" textLength="127" x="711" y="71.5332">Anti-Spoofing Model</text><rect fill="#E2E2F0" height="31.6094" rx="2.5" ry="2.5" style="stroke:#181818;stroke-width:0.5;" width="141" x="704" y="2570.8359"/><text fill="#000000" font-family="sans-serif" font-size="14" lengthAdjust="spacing" textLength="127" x="711" y="2592.3691">Anti-Spoofing Model</text><rect fill="#E2E2F0" height="31.6094" rx="2.5" ry="2.5" style="stroke:#181818;stroke-width:0.5;" width="167" x="867" y="50"/><text fill="#000000" font-family="sans-serif" font-size="14" lengthAdjust="spacing" textLength="153" x="874" y="71.5332">Face Recognition Model</text><rect fill="#E2E2F0" height="31.6094" rx="2.5" ry="2.5" style="stroke:#181818;stroke-width:0.5;" width="167" x="867" y="2570.8359"/><text fill="#000000" font-family="sans-serif" font-size="14" lengthAdjust="spacing" textLength="153" x="874" y="2592.3691">Face Recognition Model</text><rect fill="#E2E2F0" height="31.6094" rx="2.5" ry="2.5" style="stroke:#181818;stroke-width:0.5;" width="121" x="1044" y="50"/><text fill="#000000" font-family="sans-serif" font-size="14" lengthAdjust="spacing" textLength="107" x="1051" y="71.5332">Assistant Module</text><rect fill="#E2E2F0" height="31.6094" rx="2.5" ry="2.5" style="stroke:#181818;stroke-width:0.5;" width="121" x="1044" y="2570.8359"/><text fill="#000000" font-family="sans-serif" font-size="14" lengthAdjust="spacing" textLength="107" x="1051" y="2592.3691">Assistant Module</text><rect fill="#E2E2F0" height="31.6094" rx="2.5" ry="2.5" style="stroke:#181818;stroke-width:0.5;" width="132" x="1175" y="50"/><text fill="#000000" font-family="sans-serif" font-size="14" lengthAdjust="spacing" textLength="118" x="1182" y="71.5332">Decryption Module</text><rect fill="#E2E2F0" height="31.6094" rx="2.5" ry="2.5" style="stroke:#181818;stroke-width:0.5;" width="132" x="1175" y="2570.8359"/><text fill="#000000" font-family="sans-serif" font-size="14" lengthAdjust="spacing" textLength="118" x="1182" y="2592.3691">Decryption Module</text><text fill="#000000" font-family="sans-serif" font-size="14" lengthAdjust="spacing" textLength="88" x="1343" y="79.5332">Local Storage</text><path d="M1372,29 C1372,19 1390,19 1390,19 C1390,19 1408,19 1408,29 L1408,55 C1408,65 1390,65 1390,65 C1390,65 1372,65 1372,55 L1372,29 " fill="#E2E2F0" style="stroke:#181818;stroke-width:1.5;"/><path d="M1372,29 C1372,39 1390,39 1390,39 C1390,39 1408,39 1408,29 " fill="none" style="stroke:#181818;stroke-width:1.5;"/><text fill="#000000" font-family="sans-serif" font-size="14" lengthAdjust="spacing" textLength="88" x="1343" y="2585.3691">Local Storage</text><path d="M1372,2598.4453 C1372,2588.4453 1390,2588.4453 1390,2588.4453 C1390,2588.4453 1408,2588.4453 1408,2598.4453 L1408,2624.4453 C1408,2634.4453 1390,2634.4453 1390,2634.4453 C1390,2634.4453 1372,2634.4453 1372,2624.4453 L1372,2598.4453 " fill="#E2E2F0" style="stroke:#181818;stroke-width:1.5;"/><path d="M1372,2598.4453 C1372,2608.4453 1390,2608.4453 1390,2608.4453 C1390,2608.4453 1408,2608.4453 1408,2598.4453 " fill="none" style="stroke:#181818;stroke-width:1.5;"/><rect fill="#E2E2F0" height="31.6094" rx="2.5" ry="2.5" style="stroke:#181818;stroke-width:0.5;" width="102" x="1447" y="50"/><text fill="#000000" font-family="sans-serif" font-size="14" lengthAdjust="spacing" textLength="88" x="1454" y="71.5332">Cloud Service</text><rect fill="#E2E2F0" height="31.6094" rx="2.5" ry="2.5" style="stroke:#181818;stroke-width:0.5;" width="102" x="1447" y="2570.8359"/><text fill="#000000" font-family="sans-serif" font-size="14" lengthAdjust="spacing" textLength="88" x="1454" y="2592.3691">Cloud Service</text><rect fill="#EEEEEE" height="3" style="stroke:#EEEEEE;stroke-width:1.0;" width="1589" x="0" y="113.7852"/><line style="stroke:#000000;stroke-width:1.0;" x1="0" x2="1589" y1="113.7852" y2="113.7852"/><line style="stroke:#000000;stroke-width:1.0;" x1="0" x2="1589" y1="116.7852" y2="116.7852"/><rect fill="#EEEEEE" height="24.3516" style="stroke:#000000;stroke-width:2.0;" width="163" x="713" y="102.6094"/><text fill="#000000" font-family="sans-serif" font-size="13" font-weight="bold" lengthAdjust="spacing" textLength="145" x="719" y="120.1045">Authentication Process</text><path d="M10,143.9609 L182,143.9609 L182,152.3125 L172,162.3125 L10,162.3125 L10,143.9609 " fill="#EEEEEE" style="stroke:#000000;stroke-width:1.5;"/><rect fill="none" height="1003.5703" style="stroke:#000000;stroke-width:1.5;" width="1569" x="10" y="143.9609"/><text fill="#000000" font-family="sans-serif" font-size="13" font-weight="bold" lengthAdjust="spacing" textLength="127" x="25" y="158.4561">Face Authentication</text><polygon fill="#181818" points="303.5,180.6641,313.5,184.6641,303.5,188.6641,307.5,184.6641" style="stroke:#181818;stroke-width:1.0;"/><line style="stroke:#181818;stroke-width:1.0;" x1="57.5" x2="309.5" y1="184.6641" y2="184.6641"/><text fill="#000000" font-family="sans-serif" font-size="13" lengthAdjust="spacing" textLength="145" x="64.5" y="179.8076">Approach NiotoShield Kit</text><polygon fill="#181818" points="550.5,211.0156,560.5,215.0156,550.5,219.0156,554.5,215.0156" style="stroke:#181818;stroke-width:1.0;"/><line style="stroke:#181818;stroke-width:1.0;" x1="315.5" x2="556.5" y1="215.0156" y2="215.0156"/><text fill="#000000" font-family="sans-serif" font-size="13" lengthAdjust="spacing" textLength="138" x="322.5" y="210.1592">Activate Face Detection</text><polygon fill="#181818" points="326.5,241.3672,316.5,245.3672,326.5,249.3672,322.5,245.3672" style="stroke:#181818;stroke-width:1.0;"/><line style="stroke:#181818;stroke-width:1.0;" x1="320.5" x2="561.5" y1="245.3672" y2="245.3672"/><text fill="#000000" font-family="sans-serif" font-size="13" lengthAdjust="spacing" textLength="85" x="332.5" y="240.5107">Face Detected</text><polygon fill="#181818" points="68.5,271.7188,58.5,275.7188,68.5,279.7188,64.5,275.7188" style="stroke:#181818;stroke-width:1.0;"/><line style="stroke:#181818;stroke-width:1.0;stroke-dasharray:2.0,2.0;" x1="62.5" x2="314.5" y1="275.7188" y2="275.7188"/><text fill="#000000" font-family="sans-serif" font-size="13" lengthAdjust="spacing" textLength="159" x="74.5" y="270.8623">Request to Look at Camera</text><polygon fill="#181818" points="762.5,302.0703,772.5,306.0703,762.5,310.0703,766.5,306.0703" style="stroke:#181818;stroke-width:1.0;"/><line style="stroke:#181818;stroke-width:1.0;" x1="562.5" x2="768.5" y1="306.0703" y2="306.0703"/><text fill="#000000" font-family="sans-serif" font-size="13" lengthAdjust="spacing" textLength="188" x="569.5" y="301.2139">Send Face Image for Verification</text><line style="stroke:#181818;stroke-width:1.0;" x1="774.5" x2="816.5" y1="336.4219" y2="336.4219"/><line style="stroke:#181818;stroke-width:1.0;" x1="816.5" x2="816.5" y1="336.4219" y2="349.4219"/><line style="stroke:#181818;stroke-width:1.0;" x1="775.5" x2="816.5" y1="349.4219" y2="349.4219"/><polygon fill="#181818" points="785.5,345.4219,775.5,349.4219,785.5,353.4219,781.5,349.4219" style="stroke:#181818;stroke-width:1.0;"/><text fill="#000000" font-family="sans-serif" font-size="13" lengthAdjust="spacing" textLength="162" x="781.5" y="331.5654">Apply Anti-Spoofing Checks</text><path d="M20,364.4219 L81,364.4219 L81,372.7734 L71,382.7734 L20,382.7734 L20,364.4219 " fill="#EEEEEE" style="stroke:#000000;stroke-width:1.5;"/><rect fill="none" height="776.1094" style="stroke:#000000;stroke-width:1.5;" width="1549" x="20" y="364.4219"/><text fill="#000000" font-family="sans-serif" font-size="13" font-weight="bold" lengthAdjust="spacing" textLength="16" x="35" y="378.917">alt</text><text fill="#000000" font-family="sans-serif" font-size="11" font-weight="bold" lengthAdjust="spacing" textLength="92" x="96" y="377.8408">[Spoof Detected]</text><polygon fill="#181818" points="573.5,401.125,563.5,405.125,573.5,409.125,569.5,405.125" style="stroke:#181818;stroke-width:1.0;"/><line style="stroke:#181818;stroke-width:1.0;stroke-dasharray:2.0,2.0;" x1="567.5" x2="773.5" y1="405.125" y2="405.125"/><text fill="#000000" font-family="sans-serif" font-size="13" lengthAdjust="spacing" textLength="64" x="579.5" y="400.2686">Spoof Alert</text><polygon fill="#181818" points="326.5,431.4766,316.5,435.4766,326.5,439.4766,322.5,435.4766" style="stroke:#181818;stroke-width:1.0;"/><line style="stroke:#181818;stroke-width:1.0;stroke-dasharray:2.0,2.0;" x1="320.5" x2="561.5" y1="435.4766" y2="435.4766"/><text fill="#000000" font-family="sans-serif" font-size="13" lengthAdjust="spacing" textLength="223" x="332.5" y="430.6201">Authentication Failed - Spoof Detected</text><polygon fill="#181818" points="68.5,461.8281,58.5,465.8281,68.5,469.8281,64.5,465.8281" style="stroke:#181818;stroke-width:1.0;"/><line style="stroke:#181818;stroke-width:1.0;stroke-dasharray:2.0,2.0;" x1="62.5" x2="314.5" y1="465.8281" y2="465.8281"/><text fill="#000000" font-family="sans-serif" font-size="13" lengthAdjust="spacing" textLength="126" x="74.5" y="460.9717">Display Security Alert</text><polygon fill="#181818" points="1486,492.1797,1496,496.1797,1486,500.1797,1490,496.1797" style="stroke:#181818;stroke-width:1.0;"/><line style="stroke:#181818;stroke-width:1.0;" x1="315.5" x2="1492" y1="496.1797" y2="496.1797"/><text fill="#000000" font-family="sans-serif" font-size="13" lengthAdjust="spacing" textLength="122" x="322.5" y="491.3232">Log Security Incident</text><line style="stroke:#000000;stroke-width:1.0;stroke-dasharray:2.0,2.0;" x1="20" x2="1569" y1="505.1797" y2="505.1797"/><text fill="#000000" font-family="sans-serif" font-size="11" font-weight="bold" lengthAdjust="spacing" textLength="106" x="25" y="516.5986">[Real Face Verified]</text><polygon fill="#181818" points="573.5,538.3672,563.5,542.3672,573.5,546.3672,569.5,542.3672" style="stroke:#181818;stroke-width:1.0;"/><line style="stroke:#181818;stroke-width:1.0;stroke-dasharray:2.0,2.0;" x1="567.5" x2="773.5" y1="542.3672" y2="542.3672"/><text fill="#000000" font-family="sans-serif" font-size="13" lengthAdjust="spacing" textLength="121" x="579.5" y="537.5107">Real Face Confirmed</text><polygon fill="#181818" points="1229,568.7188,1239,572.7188,1229,576.7188,1233,572.7188" style="stroke:#181818;stroke-width:1.0;"/><line style="stroke:#181818;stroke-width:1.0;" x1="562.5" x2="1235" y1="572.7188" y2="572.7188"/><text fill="#000000" font-family="sans-serif" font-size="13" lengthAdjust="spacing" textLength="138" x="569.5" y="567.8623">Request Biometric Data</text><polygon fill="#181818" points="1486,599.0703,1496,603.0703,1486,607.0703,1490,603.0703" style="stroke:#181818;stroke-width:1.0;"/><line style="stroke:#181818;stroke-width:1.0;" x1="1241" x2="1492" y1="603.0703" y2="603.0703"/><text fill="#000000" font-family="sans-serif" font-size="13" lengthAdjust="spacing" textLength="199" x="1248" y="598.2139">Retrieve Encrypted Biometric Data</text><polygon fill="#181818" points="1252,629.4219,1242,633.4219,1252,637.4219,1248,633.4219" style="stroke:#181818;stroke-width:1.0;"/><line style="stroke:#181818;stroke-width:1.0;stroke-dasharray:2.0,2.0;" x1="1246" x2="1497" y1="633.4219" y2="633.4219"/><text fill="#000000" font-family="sans-serif" font-size="13" lengthAdjust="spacing" textLength="132" x="1258" y="628.5654">Return Encrypted Data</text><line style="stroke:#181818;stroke-width:1.0;" x1="1241" x2="1283" y1="663.7734" y2="663.7734"/><line style="stroke:#181818;stroke-width:1.0;" x1="1283" x2="1283" y1="663.7734" y2="676.7734"/><line style="stroke:#181818;stroke-width:1.0;" x1="1242" x2="1283" y1="676.7734" y2="676.7734"/><polygon fill="#181818" points="1252,672.7734,1242,676.7734,1252,680.7734,1248,676.7734" style="stroke:#181818;stroke-width:1.0;"/><text fill="#000000" font-family="sans-serif" font-size="13" lengthAdjust="spacing" textLength="135" x="1248" y="658.917">Decrypt Biometric Data</text><polygon fill="#181818" points="573.5,703.125,563.5,707.125,573.5,711.125,569.5,707.125" style="stroke:#181818;stroke-width:1.0;"/><line style="stroke:#181818;stroke-width:1.0;stroke-dasharray:2.0,2.0;" x1="567.5" x2="1240" y1="707.125" y2="707.125"/><text fill="#000000" font-family="sans-serif" font-size="13" lengthAdjust="spacing" textLength="169" x="579.5" y="702.2686">Provide Decrypted Templates</text><polygon fill="#181818" points="938.5,733.4766,948.5,737.4766,938.5,741.4766,942.5,737.4766" style="stroke:#181818;stroke-width:1.0;"/><line style="stroke:#181818;stroke-width:1.0;" x1="562.5" x2="944.5" y1="737.4766" y2="737.4766"/><text fill="#000000" font-family="sans-serif" font-size="13" lengthAdjust="spacing" textLength="176" x="569.5" y="732.6201">Compare Face with Templates</text><path d="M30,752.4766 L91,752.4766 L91,760.8281 L81,770.8281 L30,770.8281 L30,752.4766 " fill="#EEEEEE" style="stroke:#000000;stroke-width:1.5;"/><rect fill="none" height="381.0547" style="stroke:#000000;stroke-width:1.5;" width="1529" x="30" y="752.4766"/><text fill="#000000" font-family="sans-serif" font-size="13" font-weight="bold" lengthAdjust="spacing" textLength="16" x="45" y="766.9717">alt</text><text fill="#000000" font-family="sans-serif" font-size="11" font-weight="bold" lengthAdjust="spacing" textLength="121" x="106" y="765.8955">[Face Not Recognized]</text><polygon fill="#181818" points="573.5,789.1797,563.5,793.1797,573.5,797.1797,569.5,793.1797" style="stroke:#181818;stroke-width:1.0;"/><line style="stroke:#181818;stroke-width:1.0;stroke-dasharray:2.0,2.0;" x1="567.5" x2="949.5" y1="793.1797" y2="793.1797"/><text fill="#000000" font-family="sans-serif" font-size="13" lengthAdjust="spacing" textLength="96" x="579.5" y="788.3232">No Match Found</text><polygon fill="#181818" points="326.5,819.5313,316.5,823.5313,326.5,827.5313,322.5,823.5313" style="stroke:#181818;stroke-width:1.0;"/><line style="stroke:#181818;stroke-width:1.0;stroke-dasharray:2.0,2.0;" x1="320.5" x2="561.5" y1="823.5313" y2="823.5313"/><text fill="#000000" font-family="sans-serif" font-size="13" lengthAdjust="spacing" textLength="122" x="332.5" y="818.6748">Authentication Failed</text><polygon fill="#181818" points="68.5,849.8828,58.5,853.8828,68.5,857.8828,64.5,853.8828" style="stroke:#181818;stroke-width:1.0;"/><line style="stroke:#181818;stroke-width:1.0;stroke-dasharray:2.0,2.0;" x1="62.5" x2="314.5" y1="853.8828" y2="853.8828"/><text fill="#000000" font-family="sans-serif" font-size="13" lengthAdjust="spacing" textLength="192" x="74.5" y="849.0264">Display Access Denied Message</text><polygon fill="#181818" points="1486,880.2344,1496,884.2344,1486,888.2344,1490,884.2344" style="stroke:#181818;stroke-width:1.0;"/><line style="stroke:#181818;stroke-width:1.0;" x1="315.5" x2="1492" y1="884.2344" y2="884.2344"/><text fill="#000000" font-family="sans-serif" font-size="13" lengthAdjust="spacing" textLength="197" x="322.5" y="879.3779">Log Failed Authentication Attempt</text><line style="stroke:#000000;stroke-width:1.0;stroke-dasharray:2.0,2.0;" x1="30" x2="1559" y1="893.2344" y2="893.2344"/><text fill="#000000" font-family="sans-serif" font-size="11" font-weight="bold" lengthAdjust="spacing" textLength="100" x="35" y="904.6533">[Face Recognized]</text><polygon fill="#181818" points="573.5,926.4219,563.5,930.4219,573.5,934.4219,569.5,930.4219" style="stroke:#181818;stroke-width:1.0;"/><line style="stroke:#181818;stroke-width:1.0;stroke-dasharray:2.0,2.0;" x1="567.5" x2="949.5" y1="930.4219" y2="930.4219"/><text fill="#000000" font-family="sans-serif" font-size="13" lengthAdjust="spacing" textLength="104" x="579.5" y="925.5654">Identity Confirmed</text><polygon fill="#181818" points="326.5,956.7734,316.5,960.7734,326.5,964.7734,322.5,960.7734" style="stroke:#181818;stroke-width:1.0;"/><line style="stroke:#181818;stroke-width:1.0;stroke-dasharray:2.0,2.0;" x1="320.5" x2="561.5" y1="960.7734" y2="960.7734"/><text fill="#000000" font-family="sans-serif" font-size="13" lengthAdjust="spacing" textLength="151" x="332.5" y="955.917">Authentication Successful</text><polygon fill="#181818" points="68.5,987.125,58.5,991.125,68.5,995.125,64.5,991.125" style="stroke:#181818;stroke-width:1.0;"/><line style="stroke:#181818;stroke-width:1.0;stroke-dasharray:2.0,2.0;" x1="62.5" x2="314.5" y1="991.125" y2="991.125"/><text fill="#000000" font-family="sans-serif" font-size="13" lengthAdjust="spacing" textLength="159" x="74.5" y="986.2686">Display Welcome Message</text><polygon fill="#181818" points="1486,1017.4766,1496,1021.4766,1486,1025.4766,1490,1021.4766" style="stroke:#181818;stroke-width:1.0;"/><line style="stroke:#181818;stroke-width:1.0;" x1="315.5" x2="1492" y1="1021.4766" y2="1021.4766"/><text fill="#000000" font-family="sans-serif" font-size="13" lengthAdjust="spacing" textLength="176" x="322.5" y="1016.6201">Log Successful Authentication</text><line style="stroke:#181818;stroke-width:1.0;" x1="562.5" x2="604.5" y1="1051.8281" y2="1051.8281"/><line style="stroke:#181818;stroke-width:1.0;" x1="604.5" x2="604.5" y1="1051.8281" y2="1064.8281"/><line style="stroke:#181818;stroke-width:1.0;" x1="563.5" x2="604.5" y1="1064.8281" y2="1064.8281"/><polygon fill="#181818" points="573.5,1060.8281,563.5,1064.8281,573.5,1068.8281,569.5,1064.8281" style="stroke:#181818;stroke-width:1.0;"/><text fill="#000000" font-family="sans-serif" font-size="13" lengthAdjust="spacing" textLength="159" x="569.5" y="1046.9717">Extract New Face Features</text><polygon fill="#181818" points="1229,1091.1797,1239,1095.1797,1229,1099.1797,1233,1095.1797" style="stroke:#181818;stroke-width:1.0;"/><line style="stroke:#181818;stroke-width:1.0;" x1="562.5" x2="1235" y1="1095.1797" y2="1095.1797"/><text fill="#000000" font-family="sans-serif" font-size="13" lengthAdjust="spacing" textLength="152" x="569.5" y="1090.3232">Encrypt Updated Features</text><polygon fill="#181818" points="1486,1121.5313,1496,1125.5313,1486,1129.5313,1490,1125.5313" style="stroke:#181818;stroke-width:1.0;"/><line style="stroke:#181818;stroke-width:1.0;" x1="1241" x2="1492" y1="1125.5313" y2="1125.5313"/><text fill="#000000" font-family="sans-serif" font-size="13" lengthAdjust="spacing" textLength="177" x="1248" y="1120.6748">Store Updated Encrypted Data</text><rect fill="#EEEEEE" height="3" style="stroke:#EEEEEE;stroke-width:1.0;" width="1589" x="0" y="1175.707"/><line style="stroke:#000000;stroke-width:1.0;" x1="0" x2="1589" y1="1175.707" y2="1175.707"/><line style="stroke:#000000;stroke-width:1.0;" x1="0" x2="1589" y1="1178.707" y2="1178.707"/><rect fill="#EEEEEE" height="24.3516" style="stroke:#000000;stroke-width:2.0;" width="185" x="702" y="1164.5313"/><text fill="#000000" font-family="sans-serif" font-size="13" font-weight="bold" lengthAdjust="spacing" textLength="167" x="708" y="1182.0264">Voice Assistant Interaction</text><path d="M20,1205.8828 L207,1205.8828 L207,1214.2344 L197,1224.2344 L20,1224.2344 L20,1205.8828 " fill="#EEEEEE" style="stroke:#000000;stroke-width:1.5;"/><rect fill="none" height="647.2188" style="stroke:#000000;stroke-width:1.5;" width="1559" x="20" y="1205.8828"/><text fill="#000000" font-family="sans-serif" font-size="13" font-weight="bold" lengthAdjust="spacing" textLength="142" x="35" y="1220.3779">Assistant Conversation</text><polygon fill="#181818" points="303.5,1242.5859,313.5,1246.5859,303.5,1250.5859,307.5,1246.5859" style="stroke:#181818;stroke-width:1.0;"/><line style="stroke:#181818;stroke-width:1.0;" x1="57.5" x2="309.5" y1="1246.5859" y2="1246.5859"/><text fill="#000000" font-family="sans-serif" font-size="13" lengthAdjust="spacing" textLength="130" x="64.5" y="1241.7295">Say "Hey NiotoShield"</text><polygon fill="#181818" points="1092.5,1272.9375,1102.5,1276.9375,1092.5,1280.9375,1096.5,1276.9375" style="stroke:#181818;stroke-width:1.0;"/><line style="stroke:#181818;stroke-width:1.0;" x1="315.5" x2="1098.5" y1="1276.9375" y2="1276.9375"/><text fill="#000000" font-family="sans-serif" font-size="13" lengthAdjust="spacing" textLength="155" x="322.5" y="1272.0811">Activate Voice Recognition</text><polygon fill="#181818" points="326.5,1303.2891,316.5,1307.2891,326.5,1311.2891,322.5,1307.2891" style="stroke:#181818;stroke-width:1.0;"/><line style="stroke:#181818;stroke-width:1.0;stroke-dasharray:2.0,2.0;" x1="320.5" x2="1103.5" y1="1307.2891" y2="1307.2891"/><text fill="#000000" font-family="sans-serif" font-size="13" lengthAdjust="spacing" textLength="112" x="332.5" y="1302.4326">Assistant Activated</text><polygon fill="#181818" points="68.5,1333.6406,58.5,1337.6406,68.5,1341.6406,64.5,1337.6406" style="stroke:#181818;stroke-width:1.0;"/><line style="stroke:#181818;stroke-width:1.0;stroke-dasharray:2.0,2.0;" x1="62.5" x2="314.5" y1="1337.6406" y2="1337.6406"/><text fill="#000000" font-family="sans-serif" font-size="13" lengthAdjust="spacing" textLength="196" x="74.5" y="1332.7842">Display Assistant Ready Indicator</text><path d="M30,1352.6406 L103,1352.6406 L103,1360.9922 L93,1370.9922 L30,1370.9922 L30,1352.6406 " fill="#EEEEEE" style="stroke:#000000;stroke-width:1.5;"/><rect fill="none" height="232.8125" style="stroke:#000000;stroke-width:1.5;" width="1539" x="30" y="1352.6406"/><text fill="#000000" font-family="sans-serif" font-size="13" font-weight="bold" lengthAdjust="spacing" textLength="28" x="45" y="1367.1357">loop</text><text fill="#000000" font-family="sans-serif" font-size="11" font-weight="bold" lengthAdjust="spacing" textLength="82" x="118" y="1366.0596">[Conversation]</text><polygon fill="#181818" points="303.5,1389.3438,313.5,1393.3438,303.5,1397.3438,307.5,1393.3438" style="stroke:#181818;stroke-width:1.0;"/><line style="stroke:#181818;stroke-width:1.0;" x1="57.5" x2="309.5" y1="1393.3438" y2="1393.3438"/><text fill="#000000" font-family="sans-serif" font-size="13" lengthAdjust="spacing" textLength="156" x="64.5" y="1388.4873">Speak Command/Question</text><polygon fill="#181818" points="1092.5,1419.6953,1102.5,1423.6953,1092.5,1427.6953,1096.5,1423.6953" style="stroke:#181818;stroke-width:1.0;"/><line style="stroke:#181818;stroke-width:1.0;" x1="315.5" x2="1098.5" y1="1423.6953" y2="1423.6953"/><text fill="#000000" font-family="sans-serif" font-size="13" lengthAdjust="spacing" textLength="117" x="322.5" y="1418.8389">Process Voice Input</text><path d="M1034,1438.6953 L1099,1438.6953 L1099,1447.0469 L1089,1457.0469 L1034,1457.0469 L1034,1438.6953 " fill="#EEEEEE" style="stroke:#000000;stroke-width:1.5;"/><rect fill="none" height="79.0547" style="stroke:#000000;stroke-width:1.5;" width="525" x="1034" y="1438.6953"/><text fill="#000000" font-family="sans-serif" font-size="13" font-weight="bold" lengthAdjust="spacing" textLength="20" x="1049" y="1453.1904">opt</text><text fill="#000000" font-family="sans-serif" font-size="11" font-weight="bold" lengthAdjust="spacing" textLength="141" x="1114" y="1452.1143">[Internet Query Required]</text><polygon fill="#181818" points="1486,1475.3984,1496,1479.3984,1486,1483.3984,1490,1479.3984" style="stroke:#181818;stroke-width:1.0;"/><line style="stroke:#181818;stroke-width:1.0;" x1="1104.5" x2="1492" y1="1479.3984" y2="1479.3984"/><text fill="#000000" font-family="sans-serif" font-size="13" lengthAdjust="spacing" textLength="185" x="1111.5" y="1474.542">Send Query to Knowledge Base</text><polygon fill="#181818" points="1115.5,1505.75,1105.5,1509.75,1115.5,1513.75,1111.5,1509.75" style="stroke:#181818;stroke-width:1.0;"/><line style="stroke:#181818;stroke-width:1.0;stroke-dasharray:2.0,2.0;" x1="1109.5" x2="1497" y1="1509.75" y2="1509.75"/><text fill="#000000" font-family="sans-serif" font-size="13" lengthAdjust="spacing" textLength="105" x="1121.5" y="1504.8936">Return Information</text><polygon fill="#181818" points="326.5,1543.1016,316.5,1547.1016,326.5,1551.1016,322.5,1547.1016" style="stroke:#181818;stroke-width:1.0;"/><line style="stroke:#181818;stroke-width:1.0;" x1="320.5" x2="1103.5" y1="1547.1016" y2="1547.1016"/><text fill="#000000" font-family="sans-serif" font-size="13" lengthAdjust="spacing" textLength="115" x="332.5" y="1542.2451">Generate Response</text><polygon fill="#181818" points="68.5,1573.4531,58.5,1577.4531,68.5,1581.4531,64.5,1577.4531" style="stroke:#181818;stroke-width:1.0;"/><line style="stroke:#181818;stroke-width:1.0;stroke-dasharray:2.0,2.0;" x1="62.5" x2="314.5" y1="1577.4531" y2="1577.4531"/><text fill="#000000" font-family="sans-serif" font-size="13" lengthAdjust="spacing" textLength="146" x="74.5" y="1572.5967">Speak/Display Response</text><path d="M30,1599.4531 L91,1599.4531 L91,1607.8047 L81,1617.8047 L30,1617.8047 L30,1599.4531 " fill="#EEEEEE" style="stroke:#000000;stroke-width:1.5;"/><rect fill="none" height="185.9453" style="stroke:#000000;stroke-width:1.5;" width="1145" x="30" y="1599.4531"/><text fill="#000000" font-family="sans-serif" font-size="13" font-weight="bold" lengthAdjust="spacing" textLength="16" x="45" y="1613.9482">alt</text><text fill="#000000" font-family="sans-serif" font-size="11" font-weight="bold" lengthAdjust="spacing" textLength="54" x="106" y="1612.8721">[Timeout]</text><polygon fill="#181818" points="1092.5,1636.1563,1102.5,1640.1563,1092.5,1644.1563,1096.5,1640.1563" style="stroke:#181818;stroke-width:1.0;"/><line style="stroke:#181818;stroke-width:1.0;" x1="315.5" x2="1098.5" y1="1640.1563" y2="1640.1563"/><text fill="#000000" font-family="sans-serif" font-size="13" lengthAdjust="spacing" textLength="170" x="322.5" y="1635.2998">Detect Conversation Inactivity</text><polygon fill="#181818" points="326.5,1666.5078,316.5,1670.5078,326.5,1674.5078,322.5,1670.5078" style="stroke:#181818;stroke-width:1.0;"/><line style="stroke:#181818;stroke-width:1.0;" x1="320.5" x2="1103.5" y1="1670.5078" y2="1670.5078"/><text fill="#000000" font-family="sans-serif" font-size="13" lengthAdjust="spacing" textLength="170" x="332.5" y="1665.6514">Suggest Ending Conversation</text><polygon fill="#181818" points="68.5,1696.8594,58.5,1700.8594,68.5,1704.8594,64.5,1700.8594" style="stroke:#181818;stroke-width:1.0;"/><line style="stroke:#181818;stroke-width:1.0;stroke-dasharray:2.0,2.0;" x1="62.5" x2="314.5" y1="1700.8594" y2="1700.8594"/><text fill="#000000" font-family="sans-serif" font-size="13" lengthAdjust="spacing" textLength="171" x="74.5" y="1696.0029">"Do you need anything else?"</text><line style="stroke:#000000;stroke-width:1.0;stroke-dasharray:2.0,2.0;" x1="30" x2="1175" y1="1709.8594" y2="1709.8594"/><text fill="#000000" font-family="sans-serif" font-size="11" font-weight="bold" lengthAdjust="spacing" textLength="87" x="35" y="1721.2783">[Manual Ending]</text><polygon fill="#181818" points="303.5,1743.0469,313.5,1747.0469,303.5,1751.0469,307.5,1747.0469" style="stroke:#181818;stroke-width:1.0;"/><line style="stroke:#181818;stroke-width:1.0;" x1="57.5" x2="309.5" y1="1747.0469" y2="1747.0469"/><text fill="#000000" font-family="sans-serif" font-size="13" lengthAdjust="spacing" textLength="178" x="64.5" y="1742.1904">Say "Thank you" or "Goodbye"</text><polygon fill="#181818" points="1092.5,1773.3984,1102.5,1777.3984,1092.5,1781.3984,1096.5,1777.3984" style="stroke:#181818;stroke-width:1.0;"/><line style="stroke:#181818;stroke-width:1.0;" x1="315.5" x2="1098.5" y1="1777.3984" y2="1777.3984"/><text fill="#000000" font-family="sans-serif" font-size="13" lengthAdjust="spacing" textLength="164" x="322.5" y="1772.542">End Conversation Command</text><polygon fill="#181818" points="326.5,1810.75,316.5,1814.75,326.5,1818.75,322.5,1814.75" style="stroke:#181818;stroke-width:1.0;"/><line style="stroke:#181818;stroke-width:1.0;" x1="320.5" x2="1103.5" y1="1814.75" y2="1814.75"/><text fill="#000000" font-family="sans-serif" font-size="13" lengthAdjust="spacing" textLength="101" x="332.5" y="1809.8936">End Conversation</text><polygon fill="#181818" points="68.5,1841.1016,58.5,1845.1016,68.5,1849.1016,64.5,1845.1016" style="stroke:#181818;stroke-width:1.0;"/><line style="stroke:#181818;stroke-width:1.0;stroke-dasharray:2.0,2.0;" x1="62.5" x2="314.5" y1="1845.1016" y2="1845.1016"/><text fill="#000000" font-family="sans-serif" font-size="13" lengthAdjust="spacing" textLength="173" x="74.5" y="1840.2451">Display Assistant Deactivated</text><rect fill="#EEEEEE" height="3" style="stroke:#EEEEEE;stroke-width:1.0;" width="1589" x="0" y="1881.2773"/><line style="stroke:#000000;stroke-width:1.0;" x1="0" x2="1589" y1="1881.2773" y2="1881.2773"/><line style="stroke:#000000;stroke-width:1.0;" x1="0" x2="1589" y1="1884.2773" y2="1884.2773"/><rect fill="#EEEEEE" height="24.3516" style="stroke:#000000;stroke-width:2.0;" width="159" x="715" y="1870.1016"/><text fill="#000000" font-family="sans-serif" font-size="13" font-weight="bold" lengthAdjust="spacing" textLength="141" x="721" y="1887.5967">Emergency Assistance</text><path d="M20,1911.4531 L200,1911.4531 L200,1919.8047 L190,1929.8047 L20,1929.8047 L20,1911.4531 " fill="#EEEEEE" style="stroke:#000000;stroke-width:1.5;"/><rect fill="none" height="384.5703" style="stroke:#000000;stroke-width:1.5;" width="1549" x="20" y="1911.4531"/><text fill="#000000" font-family="sans-serif" font-size="13" font-weight="bold" lengthAdjust="spacing" textLength="135" x="35" y="1925.9482">Emergency Detection</text><polygon fill="#181818" points="303.5,1948.1563,313.5,1952.1563,303.5,1956.1563,307.5,1952.1563" style="stroke:#181818;stroke-width:1.0;"/><line style="stroke:#181818;stroke-width:1.0;" x1="57.5" x2="309.5" y1="1952.1563" y2="1952.1563"/><text fill="#000000" font-family="sans-serif" font-size="13" lengthAdjust="spacing" textLength="181" x="64.5" y="1947.2998">Say Emergency Trigger Phrase</text><polygon fill="#181818" points="1092.5,1978.5078,1102.5,1982.5078,1092.5,1986.5078,1096.5,1982.5078" style="stroke:#181818;stroke-width:1.0;"/><line style="stroke:#181818;stroke-width:1.0;" x1="315.5" x2="1098.5" y1="1982.5078" y2="1982.5078"/><text fill="#000000" font-family="sans-serif" font-size="13" lengthAdjust="spacing" textLength="169" x="322.5" y="1977.6514">Detect Emergency Keywords</text><polygon fill="#181818" points="326.5,2008.8594,316.5,2012.8594,326.5,2016.8594,322.5,2012.8594" style="stroke:#181818;stroke-width:1.0;"/><line style="stroke:#181818;stroke-width:1.0;" x1="320.5" x2="1103.5" y1="2012.8594" y2="2012.8594"/><text fill="#000000" font-family="sans-serif" font-size="13" lengthAdjust="spacing" textLength="161" x="332.5" y="2008.0029">Trigger Emergency Protocol</text><polygon fill="#181818" points="1486,2039.2109,1496,2043.2109,1486,2047.2109,1490,2043.2109" style="stroke:#181818;stroke-width:1.0;"/><line style="stroke:#181818;stroke-width:1.0;" x1="315.5" x2="1492" y1="2043.2109" y2="2043.2109"/><text fill="#000000" font-family="sans-serif" font-size="13" lengthAdjust="spacing" textLength="131" x="322.5" y="2038.3545">Send Emergency Alert</text><polygon fill="#181818" points="68.5,2069.5625,58.5,2073.5625,68.5,2077.5625,64.5,2073.5625" style="stroke:#181818;stroke-width:1.0;"/><line style="stroke:#181818;stroke-width:1.0;stroke-dasharray:2.0,2.0;" x1="62.5" x2="314.5" y1="2073.5625" y2="2073.5625"/><text fill="#000000" font-family="sans-serif" font-size="13" lengthAdjust="spacing" textLength="234" x="74.5" y="2068.7061">"Emergency services have been notified"</text><polygon fill="#181818" points="326.5,2099.9141,316.5,2103.9141,326.5,2107.9141,322.5,2103.9141" style="stroke:#181818;stroke-width:1.0;"/><line style="stroke:#181818;stroke-width:1.0;" x1="320.5" x2="1497" y1="2103.9141" y2="2103.9141"/><text fill="#000000" font-family="sans-serif" font-size="13" lengthAdjust="spacing" textLength="131" x="332.5" y="2099.0576">Confirm Alert Received</text><polygon fill="#181818" points="68.5,2130.2656,58.5,2134.2656,68.5,2138.2656,64.5,2134.2656" style="stroke:#181818;stroke-width:1.0;"/><line style="stroke:#181818;stroke-width:1.0;stroke-dasharray:2.0,2.0;" x1="62.5" x2="314.5" y1="2134.2656" y2="2134.2656"/><text fill="#000000" font-family="sans-serif" font-size="13" lengthAdjust="spacing" textLength="119" x="74.5" y="2129.4092">Display Confirmation</text><path d="M30,2149.2656 L95,2149.2656 L95,2157.6172 L85,2167.6172 L30,2167.6172 L30,2149.2656 " fill="#EEEEEE" style="stroke:#000000;stroke-width:1.5;"/><rect fill="none" height="139.7578" style="stroke:#000000;stroke-width:1.5;" width="1529" x="30" y="2149.2656"/><text fill="#000000" font-family="sans-serif" font-size="13" font-weight="bold" lengthAdjust="spacing" textLength="20" x="45" y="2163.7607">opt</text><text fill="#000000" font-family="sans-serif" font-size="11" font-weight="bold" lengthAdjust="spacing" textLength="110" x="110" y="2162.6846">[Cancel Emergency]</text><polygon fill="#181818" points="303.5,2185.9688,313.5,2189.9688,303.5,2193.9688,307.5,2189.9688" style="stroke:#181818;stroke-width:1.0;"/><line style="stroke:#181818;stroke-width:1.0;" x1="57.5" x2="309.5" y1="2189.9688" y2="2189.9688"/><text fill="#000000" font-family="sans-serif" font-size="13" lengthAdjust="spacing" textLength="112" x="64.5" y="2185.1123">Say Cancel Phrase</text><polygon fill="#181818" points="1486,2216.3203,1496,2220.3203,1486,2224.3203,1490,2220.3203" style="stroke:#181818;stroke-width:1.0;"/><line style="stroke:#181818;stroke-width:1.0;" x1="315.5" x2="1492" y1="2220.3203" y2="2220.3203"/><text fill="#000000" font-family="sans-serif" font-size="13" lengthAdjust="spacing" textLength="141" x="322.5" y="2215.4639">Cancel Emergency Alert</text><polygon fill="#181818" points="326.5,2246.6719,316.5,2250.6719,326.5,2254.6719,322.5,2250.6719" style="stroke:#181818;stroke-width:1.0;"/><line style="stroke:#181818;stroke-width:1.0;stroke-dasharray:2.0,2.0;" x1="320.5" x2="1497" y1="2250.6719" y2="2250.6719"/><text fill="#000000" font-family="sans-serif" font-size="13" lengthAdjust="spacing" textLength="119" x="332.5" y="2245.8154">Confirm Cancellation</text><polygon fill="#181818" points="68.5,2277.0234,58.5,2281.0234,68.5,2285.0234,64.5,2281.0234" style="stroke:#181818;stroke-width:1.0;"/><line style="stroke:#181818;stroke-width:1.0;stroke-dasharray:2.0,2.0;" x1="62.5" x2="314.5" y1="2281.0234" y2="2281.0234"/><text fill="#000000" font-family="sans-serif" font-size="13" lengthAdjust="spacing" textLength="164" x="74.5" y="2276.167">"Emergency alert cancelled"</text><rect fill="#EEEEEE" height="3" style="stroke:#EEEEEE;stroke-width:1.0;" width="1589" x="0" y="2324.1992"/><line style="stroke:#000000;stroke-width:1.0;" x1="0" x2="1589" y1="2324.1992" y2="2324.1992"/><line style="stroke:#000000;stroke-width:1.0;" x1="0" x2="1589" y1="2327.1992" y2="2327.1992"/><rect fill="#EEEEEE" height="24.3516" style="stroke:#000000;stroke-width:2.0;" width="107" x="741" y="2313.0234"/><text fill="#000000" font-family="sans-serif" font-size="13" font-weight="bold" lengthAdjust="spacing" textLength="89" x="747" y="2330.5186">System Status</text><path d="M30,2354.375 L207,2354.375 L207,2362.7266 L197,2372.7266 L30,2372.7266 L30,2354.375 " fill="#EEEEEE" style="stroke:#000000;stroke-width:1.5;"/><rect fill="none" height="200.4609" style="stroke:#000000;stroke-width:1.5;" width="1529" x="30" y="2354.375"/><text fill="#000000" font-family="sans-serif" font-size="13" font-weight="bold" lengthAdjust="spacing" textLength="132" x="45" y="2368.8701">Check System Status</text><polygon fill="#181818" points="303.5,2391.0781,313.5,2395.0781,303.5,2399.0781,307.5,2395.0781" style="stroke:#181818;stroke-width:1.0;"/><line style="stroke:#181818;stroke-width:1.0;" x1="57.5" x2="309.5" y1="2395.0781" y2="2395.0781"/><text fill="#000000" font-family="sans-serif" font-size="13" lengthAdjust="spacing" textLength="139" x="64.5" y="2390.2217">Request System Status</text><polygon fill="#181818" points="1378,2421.4297,1388,2425.4297,1378,2429.4297,1382,2425.4297" style="stroke:#181818;stroke-width:1.0;"/><line style="stroke:#181818;stroke-width:1.0;" x1="315.5" x2="1384" y1="2425.4297" y2="2425.4297"/><text fill="#000000" font-family="sans-serif" font-size="13" lengthAdjust="spacing" textLength="120" x="322.5" y="2420.5732">Check Device Health</text><polygon fill="#181818" points="326.5,2451.7813,316.5,2455.7813,326.5,2459.7813,322.5,2455.7813" style="stroke:#181818;stroke-width:1.0;"/><line style="stroke:#181818;stroke-width:1.0;stroke-dasharray:2.0,2.0;" x1="320.5" x2="1389" y1="2455.7813" y2="2455.7813"/><text fill="#000000" font-family="sans-serif" font-size="13" lengthAdjust="spacing" textLength="134" x="332.5" y="2450.9248">Return System Metrics</text><polygon fill="#181818" points="1486,2482.1328,1496,2486.1328,1486,2490.1328,1490,2486.1328" style="stroke:#181818;stroke-width:1.0;"/><line style="stroke:#181818;stroke-width:1.0;" x1="315.5" x2="1492" y1="2486.1328" y2="2486.1328"/><text fill="#000000" font-family="sans-serif" font-size="13" lengthAdjust="spacing" textLength="144" x="322.5" y="2481.2764">Verify Connection Status</text><polygon fill="#181818" points="326.5,2512.4844,316.5,2516.4844,326.5,2520.4844,322.5,2516.4844" style="stroke:#181818;stroke-width:1.0;"/><line style="stroke:#181818;stroke-width:1.0;stroke-dasharray:2.0,2.0;" x1="320.5" x2="1497" y1="2516.4844" y2="2516.4844"/><text fill="#000000" font-family="sans-serif" font-size="13" lengthAdjust="spacing" textLength="148" x="332.5" y="2511.6279">Return Connection Health</text><polygon fill="#181818" points="68.5,2542.8359,58.5,2546.8359,68.5,2550.8359,64.5,2546.8359" style="stroke:#181818;stroke-width:1.0;"/><line style="stroke:#181818;stroke-width:1.0;stroke-dasharray:2.0,2.0;" x1="62.5" x2="314.5" y1="2546.8359" y2="2546.8359"/><text fill="#000000" font-family="sans-serif" font-size="13" lengthAdjust="spacing" textLength="194" x="74.5" y="2541.9795">Display System Status Summary</text><!--SRC=[ZLTBRziu4BxxLn2wz1JqRY1Tk7RI6gdJRfosPuOQMuHbKgKePxM_VeSFYQGUNWT88eZV36U-UOeoBHN9VjQWCa9hqk33eg9ASyOhAZJ9dhdKSbzmA7FonBL5dRXEGO-K0VcX98Ewvk98TZ9lIh3O0nwParHW9JI_srTI7ZmSIel6GsvVJ-X_0IQFWcikHIHXzEF9G3sQKMlp65b2kvSfTWDCjLMdjGFdxkqYfvg-qHf8zaqoMf8zyaMF3bExvrJTkfHDJlQWBfmv63Dl5elxUx9gT07e8QFsEayOkRzVB8vADXMnVgQe1S4V4nPozyaGloIhgbAIie8CGcEHY330ZdL4CyqlL8FJlG4Dh5VReNhL4GRoe0-FZGLB3C6V1cfDj2JVf3mHgicQda5HYxL_FX0RsxgBxGKKFyI-n9VsuLuYOo9tzs_FI2evO5x-6ihs-84mKbAs94sgTG7iL0V3QAc9aqqS7AXDk7FlLYKetME3-NqyqgW-Kbv2JkxcBaiPtV2wAccBxhD6STqERlFXj2cqHCwF0RWLZETuhyL2MPi2mGIr53hYRl0mYAobE71rZcJwXmyEeKBzJR3ngIkPa2MVkJo3LfoH3LPHB-DnaLyl1WKN80_27Y5zCx9MmFeGtQOR9IBHkSjw2L_n_sjVmXJ-lI3VdJ3Uymfd39s6UinOJ8jlK4ja-8oTmXVYEzV5DGqcMotmMUgky_qR1QUx1Oy6XZvBigCQsyEZRCHOu8RSJMIcqtN5REVQWC0i8pjyDerm99TahY-CmPKhhP65aF4sa-D-VvlNMrCAfYp6UNoJv_l6UdHeoXky_mqbmzIvqU-WUggrZoBlAkwxdKXOdBJHygwfSjF2iNoD8oIFqtKgtnmd3_zeHPacp_3k67q4YhKIfTji2Vjg8Z_jnVcqvBYGpNI4NcYc9C5dfVblVira_2MvcNpzsDuA3SPs4vem7iCvHXa7Ipqp8VSOe-mhjF64pEBnsAy2qNnq9hmCcboFZ3AdVzN9JetAlb9wDFRQtBJjt8HVgZ2PIYchiKTZhogW9zD5pbJa7_ysBJR6ZbthzWldsLPKZHut6bbvjWLeWafLQ_itLuCAYeW8uJOpsydWHl0av3iMECxkpxWm9SAXRKVc-SQz5JZgpwdV82R6K6A1PUGB2CmIRQA6-uQ8BarZOPdxs4Ka0NStzIl2Ap-3RFGLMjr4JmA6JfXalM03kcBklZaUpLnym1Gm2yfKn5F3iuqahMo802mYAbfT647J8l_AmjpVKT5Wft1gPtB7LCHhGSN9wCk8MVg_I9c_jP1TSHLLfdxwx9kWRkJjKFQc6ja0xMkgwmqFk60UGR20msmEJI4SfyljoFy0V5KS8w78Zq9rcJeRvY3r1EsxL7azus-dD0XW_Md9PBaOpmLREP5Z_T8tY7-0rEwBeYO5nKNf3K0G8RNTyh8G1bzetYG_2vrwqzg0NwusAoyGuhNeMiJQi5u6a-VJp2CZRiVk3xKDjjxGBX8td5HvjM22IcgTPawc8ocUEVksnjK3PnQEjlWZp7uufAVZXEfst37CU-e_3fTUtGPCzCXNtBTrON4U4Dpq_T1htDdDj9x87RlSsrW9b-xnxGFglCu86ramyoMIqB9liE1LQqdx3m00]--></g></svg>