<?xml version="1.0" encoding="us-ascii" standalone="no"?><svg xmlns="http://www.w3.org/2000/svg" xmlns:xlink="http://www.w3.org/1999/xlink" contentStyleType="text/css" height="1020px" preserveAspectRatio="none" style="width:1127px;height:1020px;background:#FFFFFF;" version="1.1" viewBox="0 0 1127 1020" width="1127px" zoomAndPan="magnify"><defs/><g><!--class User--><g id="elem_User"><rect codeLine="10" fill="#ADD8E6" height="153.6563" id="User" rx="2.5" ry="2.5" style="stroke:#00008B;stroke-width:0.5;" width="142" x="492" y="256"/><ellipse cx="544.25" cy="272" fill="#ADD1B2" rx="11" ry="11" style="stroke:#181818;stroke-width:1.0;"/><path d="M547.0156,267.875 Q547.1719,267.6563 547.3594,267.5469 Q547.5469,267.4375 547.7656,267.4375 Q548.1406,267.4375 548.375,267.7031 Q548.6094,267.9531 548.6094,268.5625 L548.6094,270.0156 Q548.6094,270.625 548.375,270.8906 Q548.1406,271.1563 547.7656,271.1563 Q547.4219,271.1563 547.2188,270.9531 Q547.0156,270.7656 546.9063,270.25 Q546.8594,269.8906 546.6719,269.7031 Q546.3438,269.3281 545.7344,269.1094 Q545.125,268.8906 544.5,268.8906 Q543.7344,268.8906 543.0938,269.2188 Q542.4688,269.5469 541.9688,270.2969 Q541.4844,271.0469 541.4844,272.0781 L541.4844,273.1719 Q541.4844,274.4063 542.375,275.2344 Q543.2656,276.0469 544.8594,276.0469 Q545.7969,276.0469 546.4531,275.7969 Q546.8438,275.6406 547.2656,275.2031 Q547.5313,274.9375 547.6719,274.8594 Q547.8281,274.7813 548.0313,274.7813 Q548.3594,274.7813 548.6094,275.0469 Q548.875,275.2969 548.875,275.6406 Q548.875,275.9844 548.5313,276.3906 Q548.0313,276.9688 547.2344,277.2969 Q546.1563,277.75 544.8594,277.75 Q543.3438,277.75 542.1406,277.125 Q541.1563,276.625 540.4688,275.5625 Q539.7813,274.4844 539.7813,273.2031 L539.7813,272.0469 Q539.7813,270.7188 540.3906,269.5781 Q541.0156,268.4219 542.1094,267.8125 Q543.2031,267.1875 544.4375,267.1875 Q545.1719,267.1875 545.8125,267.3594 Q546.4688,267.5156 547.0156,267.875 Z " fill="#000000"/><text fill="#000000" font-family="sans-serif" font-size="14" lengthAdjust="spacing" textLength="29" x="564.75" y="277.7285">User</text><line style="stroke:#00008B;stroke-width:0.5;" x1="493" x2="633" y1="288" y2="288"/><rect fill="none" height="6" style="stroke:#C82930;stroke-width:1.0;" width="6" x="500" y="299.3047"/><text fill="#000000" font-family="sans-serif" font-size="14" lengthAdjust="spacing" textLength="50" x="512" y="306.5332">id: UUID</text><rect fill="none" height="6" style="stroke:#C82930;stroke-width:1.0;" width="6" x="500" y="316.9141"/><text fill="#000000" font-family="sans-serif" font-size="14" lengthAdjust="spacing" textLength="78" x="512" y="324.1426">email: String</text><rect fill="none" height="6" style="stroke:#C82930;stroke-width:1.0;" width="6" x="500" y="334.5234"/><text fill="#000000" font-family="sans-serif" font-size="14" lengthAdjust="spacing" textLength="105" x="512" y="341.752">password: String</text><line style="stroke:#00008B;stroke-width:0.5;" x1="493" x2="633" y1="348.8281" y2="348.8281"/><ellipse cx="503" cy="363.1328" fill="#84BE84" rx="3" ry="3" style="stroke:#038048;stroke-width:1.0;"/><text fill="#000000" font-family="sans-serif" font-size="14" lengthAdjust="spacing" textLength="53" x="512" y="367.3613">signUp()</text><ellipse cx="503" cy="380.7422" fill="#84BE84" rx="3" ry="3" style="stroke:#038048;stroke-width:1.0;"/><text fill="#000000" font-family="sans-serif" font-size="14" lengthAdjust="spacing" textLength="40" x="512" y="384.9707">login()</text><ellipse cx="503" cy="398.3516" fill="#84BE84" rx="3" ry="3" style="stroke:#038048;stroke-width:1.0;"/><text fill="#000000" font-family="sans-serif" font-size="14" lengthAdjust="spacing" textLength="116" x="512" y="402.5801">verifyCredentials()</text></g><!--class UserProfile--><g id="elem_UserProfile"><rect codeLine="19" fill="#ADD8E6" height="259.3125" id="UserProfile" rx="2.5" ry="2.5" style="stroke:#00008B;stroke-width:0.5;" width="202" x="7" y="488"/><ellipse cx="69.25" cy="504" fill="#ADD1B2" rx="11" ry="11" style="stroke:#181818;stroke-width:1.0;"/><path d="M72.0156,499.875 Q72.1719,499.6563 72.3594,499.5469 Q72.5469,499.4375 72.7656,499.4375 Q73.1406,499.4375 73.375,499.7031 Q73.6094,499.9531 73.6094,500.5625 L73.6094,502.0156 Q73.6094,502.625 73.375,502.8906 Q73.1406,503.1563 72.7656,503.1563 Q72.4219,503.1563 72.2188,502.9531 Q72.0156,502.7656 71.9063,502.25 Q71.8594,501.8906 71.6719,501.7031 Q71.3438,501.3281 70.7344,501.1094 Q70.125,500.8906 69.5,500.8906 Q68.7344,500.8906 68.0938,501.2188 Q67.4688,501.5469 66.9688,502.2969 Q66.4844,503.0469 66.4844,504.0781 L66.4844,505.1719 Q66.4844,506.4063 67.375,507.2344 Q68.2656,508.0469 69.8594,508.0469 Q70.7969,508.0469 71.4531,507.7969 Q71.8438,507.6406 72.2656,507.2031 Q72.5313,506.9375 72.6719,506.8594 Q72.8281,506.7813 73.0313,506.7813 Q73.3594,506.7813 73.6094,507.0469 Q73.875,507.2969 73.875,507.6406 Q73.875,507.9844 73.5313,508.3906 Q73.0313,508.9688 72.2344,509.2969 Q71.1563,509.75 69.8594,509.75 Q68.3438,509.75 67.1406,509.125 Q66.1563,508.625 65.4688,507.5625 Q64.7813,506.4844 64.7813,505.2031 L64.7813,504.0469 Q64.7813,502.7188 65.3906,501.5781 Q66.0156,500.4219 67.1094,499.8125 Q68.2031,499.1875 69.4375,499.1875 Q70.1719,499.1875 70.8125,499.3594 Q71.4688,499.5156 72.0156,499.875 Z " fill="#000000"/><text fill="#000000" font-family="sans-serif" font-size="14" lengthAdjust="spacing" textLength="69" x="89.75" y="509.7285">UserProfile</text><line style="stroke:#00008B;stroke-width:0.5;" x1="8" x2="208" y1="520" y2="520"/><rect fill="none" height="6" style="stroke:#C82930;stroke-width:1.0;" width="6" x="15" y="531.3047"/><text fill="#000000" font-family="sans-serif" font-size="14" lengthAdjust="spacing" textLength="50" x="27" y="538.5332">id: UUID</text><rect fill="none" height="6" style="stroke:#C82930;stroke-width:1.0;" width="6" x="15" y="548.9141"/><text fill="#000000" font-family="sans-serif" font-size="14" lengthAdjust="spacing" textLength="80" x="27" y="556.1426">name: String</text><rect fill="none" height="6" style="stroke:#C82930;stroke-width:1.0;" width="6" x="15" y="566.5234"/><text fill="#000000" font-family="sans-serif" font-size="14" lengthAdjust="spacing" textLength="92" x="27" y="573.752">interest: String</text><rect fill="none" height="6" style="stroke:#C82930;stroke-width:1.0;" width="6" x="15" y="584.1328"/><text fill="#000000" font-family="sans-serif" font-size="14" lengthAdjust="spacing" textLength="108" x="27" y="591.3613">more_info: String</text><rect fill="none" height="6" style="stroke:#C82930;stroke-width:1.0;" width="6" x="15" y="601.7422"/><text fill="#000000" font-family="sans-serif" font-size="14" lengthAdjust="spacing" textLength="114" x="27" y="608.9707">image_urls: String</text><rect fill="none" height="6" style="stroke:#C82930;stroke-width:1.0;" width="6" x="15" y="619.3516"/><text fill="#000000" font-family="sans-serif" font-size="14" lengthAdjust="spacing" textLength="176" x="27" y="626.5801">images_encrypted_k: String</text><rect fill="none" height="6" style="stroke:#C82930;stroke-width:1.0;" width="6" x="15" y="636.9609"/><text fill="#000000" font-family="sans-serif" font-size="14" lengthAdjust="spacing" textLength="135" x="27" y="644.1895">profile_picture: String</text><rect fill="none" height="6" style="stroke:#C82930;stroke-width:1.0;" width="6" x="15" y="654.5703"/><text fill="#000000" font-family="sans-serif" font-size="14" lengthAdjust="spacing" textLength="96" x="27" y="661.7988">admin_id: UUID</text><rect fill="none" height="6" style="stroke:#C82930;stroke-width:1.0;" width="6" x="15" y="672.1797"/><text fill="#000000" font-family="sans-serif" font-size="14" lengthAdjust="spacing" textLength="149" x="27" y="679.4082">updated_at: Timestamp</text><line style="stroke:#00008B;stroke-width:0.5;" x1="8" x2="208" y1="686.4844" y2="686.4844"/><ellipse cx="18" cy="700.7891" fill="#84BE84" rx="3" ry="3" style="stroke:#038048;stroke-width:1.0;"/><text fill="#000000" font-family="sans-serif" font-size="14" lengthAdjust="spacing" textLength="90" x="27" y="705.0176">createProfile()</text><ellipse cx="18" cy="718.3984" fill="#84BE84" rx="3" ry="3" style="stroke:#038048;stroke-width:1.0;"/><text fill="#000000" font-family="sans-serif" font-size="14" lengthAdjust="spacing" textLength="94" x="27" y="722.627">updateProfile()</text><ellipse cx="18" cy="736.0078" fill="#84BE84" rx="3" ry="3" style="stroke:#038048;stroke-width:1.0;"/><text fill="#000000" font-family="sans-serif" font-size="14" lengthAdjust="spacing" textLength="89" x="27" y="740.2363">deleteProfile()</text></g><!--class UserSettings--><g id="elem_UserSettings"><rect codeLine="34" fill="#ADD8E6" height="136.0469" id="UserSettings" rx="2.5" ry="2.5" style="stroke:#00008B;stroke-width:0.5;" width="175" x="244.5" y="549.5"/><ellipse cx="287.85" cy="565.5" fill="#ADD1B2" rx="11" ry="11" style="stroke:#181818;stroke-width:1.0;"/><path d="M290.6156,561.375 Q290.7719,561.1563 290.9594,561.0469 Q291.1469,560.9375 291.3656,560.9375 Q291.7406,560.9375 291.975,561.2031 Q292.2094,561.4531 292.2094,562.0625 L292.2094,563.5156 Q292.2094,564.125 291.975,564.3906 Q291.7406,564.6563 291.3656,564.6563 Q291.0219,564.6563 290.8188,564.4531 Q290.6156,564.2656 290.5063,563.75 Q290.4594,563.3906 290.2719,563.2031 Q289.9438,562.8281 289.3344,562.6094 Q288.725,562.3906 288.1,562.3906 Q287.3344,562.3906 286.6938,562.7188 Q286.0688,563.0469 285.5688,563.7969 Q285.0844,564.5469 285.0844,565.5781 L285.0844,566.6719 Q285.0844,567.9063 285.975,568.7344 Q286.8656,569.5469 288.4594,569.5469 Q289.3969,569.5469 290.0531,569.2969 Q290.4438,569.1406 290.8656,568.7031 Q291.1313,568.4375 291.2719,568.3594 Q291.4281,568.2813 291.6313,568.2813 Q291.9594,568.2813 292.2094,568.5469 Q292.475,568.7969 292.475,569.1406 Q292.475,569.4844 292.1313,569.8906 Q291.6313,570.4688 290.8344,570.7969 Q289.7563,571.25 288.4594,571.25 Q286.9438,571.25 285.7406,570.625 Q284.7563,570.125 284.0688,569.0625 Q283.3813,567.9844 283.3813,566.7031 L283.3813,565.5469 Q283.3813,564.2188 283.9906,563.0781 Q284.6156,561.9219 285.7094,561.3125 Q286.8031,560.6875 288.0375,560.6875 Q288.7719,560.6875 289.4125,560.8594 Q290.0688,561.0156 290.6156,561.375 Z " fill="#000000"/><text fill="#000000" font-family="sans-serif" font-size="14" lengthAdjust="spacing" textLength="80" x="308.15" y="571.2285">UserSettings</text><line style="stroke:#00008B;stroke-width:0.5;" x1="245.5" x2="418.5" y1="581.5" y2="581.5"/><rect fill="none" height="6" style="stroke:#C82930;stroke-width:1.0;" width="6" x="252.5" y="592.8047"/><text fill="#000000" font-family="sans-serif" font-size="14" lengthAdjust="spacing" textLength="86" x="264.5" y="600.0332">user_id: UUID</text><rect fill="none" height="6" style="stroke:#C82930;stroke-width:1.0;" width="6" x="252.5" y="610.4141"/><text fill="#000000" font-family="sans-serif" font-size="14" lengthAdjust="spacing" textLength="92" x="264.5" y="617.6426">settings: JSON</text><rect fill="none" height="6" style="stroke:#C82930;stroke-width:1.0;" width="6" x="252.5" y="628.0234"/><text fill="#000000" font-family="sans-serif" font-size="14" lengthAdjust="spacing" textLength="149" x="264.5" y="635.252">updated_at: Timestamp</text><line style="stroke:#00008B;stroke-width:0.5;" x1="245.5" x2="418.5" y1="642.3281" y2="642.3281"/><ellipse cx="255.5" cy="656.6328" fill="#84BE84" rx="3" ry="3" style="stroke:#038048;stroke-width:1.0;"/><text fill="#000000" font-family="sans-serif" font-size="14" lengthAdjust="spacing" textLength="105" x="264.5" y="660.8613">updateSettings()</text><ellipse cx="255.5" cy="674.2422" fill="#84BE84" rx="3" ry="3" style="stroke:#038048;stroke-width:1.0;"/><text fill="#000000" font-family="sans-serif" font-size="14" lengthAdjust="spacing" textLength="81" x="264.5" y="678.4707">getSettings()</text></g><!--class Admin--><g id="elem_Admin"><rect codeLine="43" fill="#ADD8E6" height="171.2656" id="Admin" rx="2.5" ry="2.5" style="stroke:#00008B;stroke-width:0.5;" width="150" x="759" y="7"/><ellipse cx="810.25" cy="23" fill="#ADD1B2" rx="11" ry="11" style="stroke:#181818;stroke-width:1.0;"/><path d="M813.0156,18.875 Q813.1719,18.6563 813.3594,18.5469 Q813.5469,18.4375 813.7656,18.4375 Q814.1406,18.4375 814.375,18.7031 Q814.6094,18.9531 814.6094,19.5625 L814.6094,21.0156 Q814.6094,21.625 814.375,21.8906 Q814.1406,22.1563 813.7656,22.1563 Q813.4219,22.1563 813.2188,21.9531 Q813.0156,21.7656 812.9063,21.25 Q812.8594,20.8906 812.6719,20.7031 Q812.3438,20.3281 811.7344,20.1094 Q811.125,19.8906 810.5,19.8906 Q809.7344,19.8906 809.0938,20.2188 Q808.4688,20.5469 807.9688,21.2969 Q807.4844,22.0469 807.4844,23.0781 L807.4844,24.1719 Q807.4844,25.4063 808.375,26.2344 Q809.2656,27.0469 810.8594,27.0469 Q811.7969,27.0469 812.4531,26.7969 Q812.8438,26.6406 813.2656,26.2031 Q813.5313,25.9375 813.6719,25.8594 Q813.8281,25.7813 814.0313,25.7813 Q814.3594,25.7813 814.6094,26.0469 Q814.875,26.2969 814.875,26.6406 Q814.875,26.9844 814.5313,27.3906 Q814.0313,27.9688 813.2344,28.2969 Q812.1563,28.75 810.8594,28.75 Q809.3438,28.75 808.1406,28.125 Q807.1563,27.625 806.4688,26.5625 Q805.7813,25.4844 805.7813,24.2031 L805.7813,23.0469 Q805.7813,21.7188 806.3906,20.5781 Q807.0156,19.4219 808.1094,18.8125 Q809.2031,18.1875 810.4375,18.1875 Q811.1719,18.1875 811.8125,18.3594 Q812.4688,18.5156 813.0156,18.875 Z " fill="#000000"/><text fill="#000000" font-family="sans-serif" font-size="14" lengthAdjust="spacing" textLength="39" x="830.75" y="28.7285">Admin</text><line style="stroke:#00008B;stroke-width:0.5;" x1="760" x2="908" y1="39" y2="39"/><rect fill="none" height="6" style="stroke:#C82930;stroke-width:1.0;" width="6" x="767" y="50.3047"/><text fill="#000000" font-family="sans-serif" font-size="14" lengthAdjust="spacing" textLength="50" x="779" y="57.5332">id: UUID</text><rect fill="none" height="6" style="stroke:#C82930;stroke-width:1.0;" width="6" x="767" y="67.9141"/><text fill="#000000" font-family="sans-serif" font-size="14" lengthAdjust="spacing" textLength="78" x="779" y="75.1426">email: String</text><rect fill="none" height="6" style="stroke:#C82930;stroke-width:1.0;" width="6" x="767" y="85.5234"/><text fill="#000000" font-family="sans-serif" font-size="14" lengthAdjust="spacing" textLength="105" x="779" y="92.752">password: String</text><line style="stroke:#00008B;stroke-width:0.5;" x1="760" x2="908" y1="99.8281" y2="99.8281"/><ellipse cx="770" cy="114.1328" fill="#84BE84" rx="3" ry="3" style="stroke:#038048;stroke-width:1.0;"/><text fill="#000000" font-family="sans-serif" font-size="14" lengthAdjust="spacing" textLength="117" x="779" y="118.3613">manageProducts()</text><ellipse cx="770" cy="131.7422" fill="#84BE84" rx="3" ry="3" style="stroke:#038048;stroke-width:1.0;"/><text fill="#000000" font-family="sans-serif" font-size="14" lengthAdjust="spacing" textLength="86" x="779" y="135.9707">removeUser()</text><ellipse cx="770" cy="149.3516" fill="#84BE84" rx="3" ry="3" style="stroke:#038048;stroke-width:1.0;"/><text fill="#000000" font-family="sans-serif" font-size="14" lengthAdjust="spacing" textLength="124" x="779" y="153.5801">trackUserLocation()</text><ellipse cx="770" cy="166.9609" fill="#84BE84" rx="3" ry="3" style="stroke:#038048;stroke-width:1.0;"/><text fill="#000000" font-family="sans-serif" font-size="14" lengthAdjust="spacing" textLength="104" x="779" y="171.1895">disableProduct()</text></g><!--class Product--><g id="elem_Product"><rect codeLine="54" fill="#ADD8E6" height="206.4844" id="Product" rx="2.5" ry="2.5" style="stroke:#00008B;stroke-width:0.5;" width="149" x="967.5" y="514.5"/><ellipse cx="1013.25" cy="530.5" fill="#ADD1B2" rx="11" ry="11" style="stroke:#181818;stroke-width:1.0;"/><path d="M1016.0156,526.375 Q1016.1719,526.1563 1016.3594,526.0469 Q1016.5469,525.9375 1016.7656,525.9375 Q1017.1406,525.9375 1017.375,526.2031 Q1017.6094,526.4531 1017.6094,527.0625 L1017.6094,528.5156 Q1017.6094,529.125 1017.375,529.3906 Q1017.1406,529.6563 1016.7656,529.6563 Q1016.4219,529.6563 1016.2188,529.4531 Q1016.0156,529.2656 1015.9063,528.75 Q1015.8594,528.3906 1015.6719,528.2031 Q1015.3438,527.8281 1014.7344,527.6094 Q1014.125,527.3906 1013.5,527.3906 Q1012.7344,527.3906 1012.0938,527.7188 Q1011.4688,528.0469 1010.9688,528.7969 Q1010.4844,529.5469 1010.4844,530.5781 L1010.4844,531.6719 Q1010.4844,532.9063 1011.375,533.7344 Q1012.2656,534.5469 1013.8594,534.5469 Q1014.7969,534.5469 1015.4531,534.2969 Q1015.8438,534.1406 1016.2656,533.7031 Q1016.5313,533.4375 1016.6719,533.3594 Q1016.8281,533.2813 1017.0313,533.2813 Q1017.3594,533.2813 1017.6094,533.5469 Q1017.875,533.7969 1017.875,534.1406 Q1017.875,534.4844 1017.5313,534.8906 Q1017.0313,535.4688 1016.2344,535.7969 Q1015.1563,536.25 1013.8594,536.25 Q1012.3438,536.25 1011.1406,535.625 Q1010.1563,535.125 1009.4688,534.0625 Q1008.7813,532.9844 1008.7813,531.7031 L1008.7813,530.5469 Q1008.7813,529.2188 1009.3906,528.0781 Q1010.0156,526.9219 1011.1094,526.3125 Q1012.2031,525.6875 1013.4375,525.6875 Q1014.1719,525.6875 1014.8125,525.8594 Q1015.4688,526.0156 1016.0156,526.375 Z " fill="#000000"/><text fill="#000000" font-family="sans-serif" font-size="14" lengthAdjust="spacing" textLength="49" x="1033.75" y="536.2285">Product</text><line style="stroke:#00008B;stroke-width:0.5;" x1="968.5" x2="1115.5" y1="546.5" y2="546.5"/><rect fill="none" height="6" style="stroke:#C82930;stroke-width:1.0;" width="6" x="975.5" y="557.8047"/><text fill="#000000" font-family="sans-serif" font-size="14" lengthAdjust="spacing" textLength="50" x="987.5" y="565.0332">id: UUID</text><rect fill="none" height="6" style="stroke:#C82930;stroke-width:1.0;" width="6" x="975.5" y="575.4141"/><text fill="#000000" font-family="sans-serif" font-size="14" lengthAdjust="spacing" textLength="123" x="987.5" y="582.6426">product_key: String</text><rect fill="none" height="6" style="stroke:#C82930;stroke-width:1.0;" width="6" x="975.5" y="593.0234"/><text fill="#000000" font-family="sans-serif" font-size="14" lengthAdjust="spacing" textLength="91" x="987.5" y="600.252">used: Boolean</text><rect fill="none" height="6" style="stroke:#C82930;stroke-width:1.0;" width="6" x="975.5" y="610.6328"/><text fill="#000000" font-family="sans-serif" font-size="14" lengthAdjust="spacing" textLength="112" x="987.5" y="617.8613">public_key: String</text><rect fill="none" height="6" style="stroke:#C82930;stroke-width:1.0;" width="6" x="975.5" y="628.2422"/><text fill="#000000" font-family="sans-serif" font-size="14" lengthAdjust="spacing" textLength="86" x="987.5" y="635.4707">user_id: UUID</text><rect fill="none" height="6" style="stroke:#C82930;stroke-width:1.0;" width="6" x="975.5" y="645.8516"/><text fill="#000000" font-family="sans-serif" font-size="14" lengthAdjust="spacing" textLength="96" x="987.5" y="653.0801">admin_id: UUID</text><line style="stroke:#00008B;stroke-width:0.5;" x1="968.5" x2="1115.5" y1="660.1563" y2="660.1563"/><ellipse cx="978.5" cy="674.4609" fill="#84BE84" rx="3" ry="3" style="stroke:#038048;stroke-width:1.0;"/><text fill="#000000" font-family="sans-serif" font-size="14" lengthAdjust="spacing" textLength="91" x="987.5" y="678.6895">generateKey()</text><ellipse cx="978.5" cy="692.0703" fill="#84BE84" rx="3" ry="3" style="stroke:#038048;stroke-width:1.0;"/><text fill="#000000" font-family="sans-serif" font-size="14" lengthAdjust="spacing" textLength="83" x="987.5" y="696.2988">validateKey()</text><ellipse cx="978.5" cy="709.6797" fill="#84BE84" rx="3" ry="3" style="stroke:#038048;stroke-width:1.0;"/><text fill="#000000" font-family="sans-serif" font-size="14" lengthAdjust="spacing" textLength="79" x="987.5" y="713.9082">disableKey()</text></g><!--class Localization--><g id="elem_Localization"><rect codeLine="67" fill="#ADD8E6" height="188.875" id="Localization" rx="2.5" ry="2.5" style="stroke:#00008B;stroke-width:0.5;" width="171" x="687.5" y="825"/><ellipse cx="731.75" cy="841" fill="#ADD1B2" rx="11" ry="11" style="stroke:#181818;stroke-width:1.0;"/><path d="M734.5156,836.875 Q734.6719,836.6563 734.8594,836.5469 Q735.0469,836.4375 735.2656,836.4375 Q735.6406,836.4375 735.875,836.7031 Q736.1094,836.9531 736.1094,837.5625 L736.1094,839.0156 Q736.1094,839.625 735.875,839.8906 Q735.6406,840.1563 735.2656,840.1563 Q734.9219,840.1563 734.7188,839.9531 Q734.5156,839.7656 734.4063,839.25 Q734.3594,838.8906 734.1719,838.7031 Q733.8438,838.3281 733.2344,838.1094 Q732.625,837.8906 732,837.8906 Q731.2344,837.8906 730.5938,838.2188 Q729.9688,838.5469 729.4688,839.2969 Q728.9844,840.0469 728.9844,841.0781 L728.9844,842.1719 Q728.9844,843.4063 729.875,844.2344 Q730.7656,845.0469 732.3594,845.0469 Q733.2969,845.0469 733.9531,844.7969 Q734.3438,844.6406 734.7656,844.2031 Q735.0313,843.9375 735.1719,843.8594 Q735.3281,843.7813 735.5313,843.7813 Q735.8594,843.7813 736.1094,844.0469 Q736.375,844.2969 736.375,844.6406 Q736.375,844.9844 736.0313,845.3906 Q735.5313,845.9688 734.7344,846.2969 Q733.6563,846.75 732.3594,846.75 Q730.8438,846.75 729.6406,846.125 Q728.6563,845.625 727.9688,844.5625 Q727.2813,843.4844 727.2813,842.2031 L727.2813,841.0469 Q727.2813,839.7188 727.8906,838.5781 Q728.5156,837.4219 729.6094,836.8125 Q730.7031,836.1875 731.9375,836.1875 Q732.6719,836.1875 733.3125,836.3594 Q733.9688,836.5156 734.5156,836.875 Z " fill="#000000"/><text fill="#000000" font-family="sans-serif" font-size="14" lengthAdjust="spacing" textLength="74" x="752.25" y="846.7285">Localization</text><line style="stroke:#00008B;stroke-width:0.5;" x1="688.5" x2="857.5" y1="857" y2="857"/><rect fill="none" height="6" style="stroke:#C82930;stroke-width:1.0;" width="6" x="695.5" y="868.3047"/><text fill="#000000" font-family="sans-serif" font-size="14" lengthAdjust="spacing" textLength="50" x="707.5" y="875.5332">id: UUID</text><rect fill="none" height="6" style="stroke:#C82930;stroke-width:1.0;" width="6" x="695.5" y="885.9141"/><text fill="#000000" font-family="sans-serif" font-size="14" lengthAdjust="spacing" textLength="86" x="707.5" y="893.1426">user_id: UUID</text><rect fill="none" height="6" style="stroke:#C82930;stroke-width:1.0;" width="6" x="695.5" y="903.5234"/><text fill="#000000" font-family="sans-serif" font-size="14" lengthAdjust="spacing" textLength="123" x="707.5" y="910.752">product_key: String</text><rect fill="none" height="6" style="stroke:#C82930;stroke-width:1.0;" width="6" x="695.5" y="921.1328"/><text fill="#000000" font-family="sans-serif" font-size="14" lengthAdjust="spacing" textLength="55" x="707.5" y="928.3613">lat: Float</text><rect fill="none" height="6" style="stroke:#C82930;stroke-width:1.0;" width="6" x="695.5" y="938.7422"/><text fill="#000000" font-family="sans-serif" font-size="14" lengthAdjust="spacing" textLength="59" x="707.5" y="945.9707">lng: Float</text><rect fill="none" height="6" style="stroke:#C82930;stroke-width:1.0;" width="6" x="695.5" y="956.3516"/><text fill="#000000" font-family="sans-serif" font-size="14" lengthAdjust="spacing" textLength="145" x="707.5" y="963.5801">created_at: Timestamp</text><line style="stroke:#00008B;stroke-width:0.5;" x1="688.5" x2="857.5" y1="970.6563" y2="970.6563"/><ellipse cx="698.5" cy="984.9609" fill="#84BE84" rx="3" ry="3" style="stroke:#038048;stroke-width:1.0;"/><text fill="#000000" font-family="sans-serif" font-size="14" lengthAdjust="spacing" textLength="105" x="707.5" y="989.1895">recordLocation()</text><ellipse cx="698.5" cy="1002.5703" fill="#84BE84" rx="3" ry="3" style="stroke:#038048;stroke-width:1.0;"/><text fill="#000000" font-family="sans-serif" font-size="14" lengthAdjust="spacing" textLength="127" x="707.5" y="1006.7988">getLocationHistory()</text></g><!--class Notification--><g id="elem_Notification"><rect codeLine="79" fill="#ADD8E6" height="188.875" id="Notification" rx="2.5" ry="2.5" style="stroke:#00008B;stroke-width:0.5;" width="178" x="455" y="523"/><ellipse cx="505.25" cy="539" fill="#ADD1B2" rx="11" ry="11" style="stroke:#181818;stroke-width:1.0;"/><path d="M508.0156,534.875 Q508.1719,534.6563 508.3594,534.5469 Q508.5469,534.4375 508.7656,534.4375 Q509.1406,534.4375 509.375,534.7031 Q509.6094,534.9531 509.6094,535.5625 L509.6094,537.0156 Q509.6094,537.625 509.375,537.8906 Q509.1406,538.1563 508.7656,538.1563 Q508.4219,538.1563 508.2188,537.9531 Q508.0156,537.7656 507.9063,537.25 Q507.8594,536.8906 507.6719,536.7031 Q507.3438,536.3281 506.7344,536.1094 Q506.125,535.8906 505.5,535.8906 Q504.7344,535.8906 504.0938,536.2188 Q503.4688,536.5469 502.9688,537.2969 Q502.4844,538.0469 502.4844,539.0781 L502.4844,540.1719 Q502.4844,541.4063 503.375,542.2344 Q504.2656,543.0469 505.8594,543.0469 Q506.7969,543.0469 507.4531,542.7969 Q507.8438,542.6406 508.2656,542.2031 Q508.5313,541.9375 508.6719,541.8594 Q508.8281,541.7813 509.0313,541.7813 Q509.3594,541.7813 509.6094,542.0469 Q509.875,542.2969 509.875,542.6406 Q509.875,542.9844 509.5313,543.3906 Q509.0313,543.9688 508.2344,544.2969 Q507.1563,544.75 505.8594,544.75 Q504.3438,544.75 503.1406,544.125 Q502.1563,543.625 501.4688,542.5625 Q500.7813,541.4844 500.7813,540.2031 L500.7813,539.0469 Q500.7813,537.7188 501.3906,536.5781 Q502.0156,535.4219 503.1094,534.8125 Q504.2031,534.1875 505.4375,534.1875 Q506.1719,534.1875 506.8125,534.3594 Q507.4688,534.5156 508.0156,534.875 Z " fill="#000000"/><text fill="#000000" font-family="sans-serif" font-size="14" lengthAdjust="spacing" textLength="69" x="525.75" y="544.7285">Notification</text><line style="stroke:#00008B;stroke-width:0.5;" x1="456" x2="632" y1="555" y2="555"/><rect fill="none" height="6" style="stroke:#C82930;stroke-width:1.0;" width="6" x="463" y="566.3047"/><text fill="#000000" font-family="sans-serif" font-size="14" lengthAdjust="spacing" textLength="63" x="475" y="573.5332">id: Integer</text><rect fill="none" height="6" style="stroke:#C82930;stroke-width:1.0;" width="6" x="463" y="583.9141"/><text fill="#000000" font-family="sans-serif" font-size="14" lengthAdjust="spacing" textLength="86" x="475" y="591.1426">user_id: UUID</text><rect fill="none" height="6" style="stroke:#C82930;stroke-width:1.0;" width="6" x="463" y="601.5234"/><text fill="#000000" font-family="sans-serif" font-size="14" lengthAdjust="spacing" textLength="102" x="475" y="608.752">message: String</text><rect fill="none" height="6" style="stroke:#C82930;stroke-width:1.0;" width="6" x="463" y="619.1328"/><text fill="#000000" font-family="sans-serif" font-size="14" lengthAdjust="spacing" textLength="107" x="475" y="626.3613">is_read: Boolean</text><rect fill="none" height="6" style="stroke:#C82930;stroke-width:1.0;" width="6" x="463" y="636.7422"/><text fill="#000000" font-family="sans-serif" font-size="14" lengthAdjust="spacing" textLength="145" x="475" y="643.9707">created_at: Timestamp</text><line style="stroke:#00008B;stroke-width:0.5;" x1="456" x2="632" y1="651.0469" y2="651.0469"/><ellipse cx="466" cy="665.3516" fill="#84BE84" rx="3" ry="3" style="stroke:#038048;stroke-width:1.0;"/><text fill="#000000" font-family="sans-serif" font-size="14" lengthAdjust="spacing" textLength="119" x="475" y="669.5801">createNotification()</text><ellipse cx="466" cy="682.9609" fill="#84BE84" rx="3" ry="3" style="stroke:#038048;stroke-width:1.0;"/><text fill="#000000" font-family="sans-serif" font-size="14" lengthAdjust="spacing" textLength="91" x="475" y="687.1895">markAsRead()</text><ellipse cx="466" cy="700.5703" fill="#84BE84" rx="3" ry="3" style="stroke:#038048;stroke-width:1.0;"/><text fill="#000000" font-family="sans-serif" font-size="14" lengthAdjust="spacing" textLength="152" x="475" y="704.7988">getUnreadNotifications()</text></g><!--class Message--><g id="elem_Message"><rect codeLine="91" fill="#ADD8E6" height="188.875" id="Message" rx="2.5" ry="2.5" style="stroke:#00008B;stroke-width:0.5;" width="171" x="761.5" y="523"/><ellipse cx="814.25" cy="539" fill="#ADD1B2" rx="11" ry="11" style="stroke:#181818;stroke-width:1.0;"/><path d="M817.0156,534.875 Q817.1719,534.6563 817.3594,534.5469 Q817.5469,534.4375 817.7656,534.4375 Q818.1406,534.4375 818.375,534.7031 Q818.6094,534.9531 818.6094,535.5625 L818.6094,537.0156 Q818.6094,537.625 818.375,537.8906 Q818.1406,538.1563 817.7656,538.1563 Q817.4219,538.1563 817.2188,537.9531 Q817.0156,537.7656 816.9063,537.25 Q816.8594,536.8906 816.6719,536.7031 Q816.3438,536.3281 815.7344,536.1094 Q815.125,535.8906 814.5,535.8906 Q813.7344,535.8906 813.0938,536.2188 Q812.4688,536.5469 811.9688,537.2969 Q811.4844,538.0469 811.4844,539.0781 L811.4844,540.1719 Q811.4844,541.4063 812.375,542.2344 Q813.2656,543.0469 814.8594,543.0469 Q815.7969,543.0469 816.4531,542.7969 Q816.8438,542.6406 817.2656,542.2031 Q817.5313,541.9375 817.6719,541.8594 Q817.8281,541.7813 818.0313,541.7813 Q818.3594,541.7813 818.6094,542.0469 Q818.875,542.2969 818.875,542.6406 Q818.875,542.9844 818.5313,543.3906 Q818.0313,543.9688 817.2344,544.2969 Q816.1563,544.75 814.8594,544.75 Q813.3438,544.75 812.1406,544.125 Q811.1563,543.625 810.4688,542.5625 Q809.7813,541.4844 809.7813,540.2031 L809.7813,539.0469 Q809.7813,537.7188 810.3906,536.5781 Q811.0156,535.4219 812.1094,534.8125 Q813.2031,534.1875 814.4375,534.1875 Q815.1719,534.1875 815.8125,534.3594 Q816.4688,534.5156 817.0156,534.875 Z " fill="#000000"/><text fill="#000000" font-family="sans-serif" font-size="14" lengthAdjust="spacing" textLength="57" x="834.75" y="544.7285">Message</text><line style="stroke:#00008B;stroke-width:0.5;" x1="762.5" x2="931.5" y1="555" y2="555"/><rect fill="none" height="6" style="stroke:#C82930;stroke-width:1.0;" width="6" x="769.5" y="566.3047"/><text fill="#000000" font-family="sans-serif" font-size="14" lengthAdjust="spacing" textLength="63" x="781.5" y="573.5332">id: Integer</text><rect fill="none" height="6" style="stroke:#C82930;stroke-width:1.0;" width="6" x="769.5" y="583.9141"/><text fill="#000000" font-family="sans-serif" font-size="14" lengthAdjust="spacing" textLength="102" x="781.5" y="591.1426">sender_id: UUID</text><rect fill="none" height="6" style="stroke:#C82930;stroke-width:1.0;" width="6" x="769.5" y="601.5234"/><text fill="#000000" font-family="sans-serif" font-size="14" lengthAdjust="spacing" textLength="109" x="781.5" y="608.752">receiver_id: UUID</text><rect fill="none" height="6" style="stroke:#C82930;stroke-width:1.0;" width="6" x="769.5" y="619.1328"/><text fill="#000000" font-family="sans-serif" font-size="14" lengthAdjust="spacing" textLength="102" x="781.5" y="626.3613">message: String</text><rect fill="none" height="6" style="stroke:#C82930;stroke-width:1.0;" width="6" x="769.5" y="636.7422"/><text fill="#000000" font-family="sans-serif" font-size="14" lengthAdjust="spacing" textLength="145" x="781.5" y="643.9707">created_at: Timestamp</text><rect fill="none" height="6" style="stroke:#C82930;stroke-width:1.0;" width="6" x="769.5" y="654.3516"/><text fill="#000000" font-family="sans-serif" font-size="14" lengthAdjust="spacing" textLength="116" x="781.5" y="661.5801">is_admin: Boolean</text><line style="stroke:#00008B;stroke-width:0.5;" x1="762.5" x2="931.5" y1="668.6563" y2="668.6563"/><ellipse cx="772.5" cy="682.9609" fill="#84BE84" rx="3" ry="3" style="stroke:#038048;stroke-width:1.0;"/><text fill="#000000" font-family="sans-serif" font-size="14" lengthAdjust="spacing" textLength="98" x="781.5" y="687.1895">sendMessage()</text><ellipse cx="772.5" cy="700.5703" fill="#84BE84" rx="3" ry="3" style="stroke:#038048;stroke-width:1.0;"/><text fill="#000000" font-family="sans-serif" font-size="14" lengthAdjust="spacing" textLength="130" x="781.5" y="704.7988">getMessageHistory()</text></g><g id="elem_GMN21"><path d="M669.5,311.5 L669.5,329 L634.13,333 L669.5,337 L669.5,354.2031 A0,0 0 0 0 669.5,354.2031 L854.5,354.2031 A0,0 0 0 0 854.5,354.2031 L854.5,321.5 L844.5,311.5 L669.5,311.5 A0,0 0 0 0 669.5,311.5 " fill="#FEFFDD" style="stroke:#181818;stroke-width:0.5;"/><path d="M844.5,311.5 L844.5,321.5 L854.5,321.5 L844.5,311.5 " fill="#FEFFDD" style="stroke:#181818;stroke-width:0.5;"/><text fill="#000000" font-family="sans-serif" font-size="13" lengthAdjust="spacing" textLength="161" x="675.5" y="329.9951">Handles user authentication</text><text fill="#000000" font-family="sans-serif" font-size="13" lengthAdjust="spacing" textLength="164" x="675.5" y="346.3467">and basic user management</text></g><g id="elem_GMN24"><path d="M944.5,71 L944.5,88.5 L909.03,92.5 L944.5,96.5 L944.5,113.7031 A0,0 0 0 0 944.5,113.7031 L1115.5,113.7031 A0,0 0 0 0 1115.5,113.7031 L1115.5,81 L1105.5,71 L944.5,71 A0,0 0 0 0 944.5,71 " fill="#FEFFDD" style="stroke:#181818;stroke-width:0.5;"/><path d="M1105.5,71 L1105.5,81 L1115.5,81 L1105.5,71 " fill="#FEFFDD" style="stroke:#181818;stroke-width:0.5;"/><text fill="#000000" font-family="sans-serif" font-size="13" lengthAdjust="spacing" textLength="150" x="950.5" y="89.4951">Manages system security</text><text fill="#000000" font-family="sans-serif" font-size="13" lengthAdjust="spacing" textLength="105" x="950.5" y="105.8467">and user oversight</text></g><g id="elem_GMN27"><path d="M963.5,898 L963.5,940.7031 A0,0 0 0 0 963.5,940.7031 L1120.5,940.7031 A0,0 0 0 0 1120.5,940.7031 L1120.5,908 L1110.5,898 L1046,898 L1042,720.9 L1038,898 L963.5,898 A0,0 0 0 0 963.5,898 " fill="#FEFFDD" style="stroke:#181818;stroke-width:0.5;"/><path d="M1110.5,898 L1110.5,908 L1120.5,908 L1110.5,898 " fill="#FEFFDD" style="stroke:#181818;stroke-width:0.5;"/><text fill="#000000" font-family="sans-serif" font-size="13" lengthAdjust="spacing" textLength="136" x="969.5" y="916.4951">Represents NiotoShield</text><text fill="#000000" font-family="sans-serif" font-size="13" lengthAdjust="spacing" textLength="93" x="969.5" y="932.8467">security devices</text></g><!--reverse link User to UserProfile--><g id="link_User_UserProfile"><path codeLine="103" d="M480.4665,361.3489 C409.3165,386.7089 310.16,427.78 227,488 C220.97,492.37 215,497.08 209.14,502.02 " fill="none" id="User-backto-UserProfile" style="stroke:#000080;stroke-width:1.0;"/><polygon fill="#000080" points="491.77,357.32,484.7753,355.5666,480.4665,361.3489,487.4612,363.1023,491.77,357.32" style="stroke:#000080;stroke-width:1.0;"/><text fill="#000000" font-family="sans-serif" font-size="13" lengthAdjust="spacing" textLength="21" x="297" y="454.4951">has</text><text fill="#000000" font-family="sans-serif" font-size="13" lengthAdjust="spacing" textLength="7" x="477.0635" y="356.534">1</text><text fill="#000000" font-family="sans-serif" font-size="13" lengthAdjust="spacing" textLength="7" x="217.1515" y="490.0627">1</text></g><!--reverse link User to UserSettings--><g id="link_User_UserSettings"><path codeLine="104" d="M492.9026,419.6487 C472.6426,444.4187 457.66,462.73 437,488 C420.68,507.96 402.94,529.67 386.76,549.47 " fill="none" id="User-backto-UserSettings" style="stroke:#000080;stroke-width:1.0;"/><polygon fill="#000080" points="500.5,410.36,493.6051,412.4719,492.9026,419.6487,499.7975,417.5368,500.5,410.36" style="stroke:#000080;stroke-width:1.0;"/><text fill="#000000" font-family="sans-serif" font-size="13" lengthAdjust="spacing" textLength="21" x="477" y="454.4951">has</text><text fill="#000000" font-family="sans-serif" font-size="13" lengthAdjust="spacing" textLength="7" x="487.8281" y="431.2206">1</text><text fill="#000000" font-family="sans-serif" font-size="13" lengthAdjust="spacing" textLength="7" x="385.3666" y="538.666">1</text></g><!--reverse link User to Localization--><g id="link_User_Localization"><path codeLine="105" d="M617.7811,420.7701 C631.8011,444.9401 640.19,461.81 651,488 C696.51,598.22 688.14,632.38 721,747 C728.24,772.27 736.37,799.55 744.01,824.75 " fill="none" id="User-backto-Localization" style="stroke:#000080;stroke-width:1.0;"/><polygon fill="#000080" points="611.76,410.39,611.3105,417.5871,617.7811,420.7701,618.2306,413.573,611.76,410.39" style="stroke:#000080;stroke-width:1.0;"/><text fill="#000000" font-family="sans-serif" font-size="13" lengthAdjust="spacing" textLength="21" x="722" y="622.9951">has</text><text fill="#000000" font-family="sans-serif" font-size="13" lengthAdjust="spacing" textLength="7" x="608.6495" y="431.2532">1</text><text fill="#000000" font-family="sans-serif" font-size="13" lengthAdjust="spacing" textLength="5" x="736.5006" y="814.0762">*</text></g><!--reverse link User to Notification--><g id="link_User_Notification"><path codeLine="106" d="M557.0765,422.0531 C554.7465,456.7731 552.76,486.26 550.3,522.88 " fill="none" id="User-backto-Notification" style="stroke:#000080;stroke-width:1.0;"/><polygon fill="#000080" points="557.88,410.08,553.4872,415.7987,557.0765,422.0531,561.4693,416.3344,557.88,410.08" style="stroke:#000080;stroke-width:1.0;"/><text fill="#000000" font-family="sans-serif" font-size="13" lengthAdjust="spacing" textLength="47" x="556" y="454.4951">receives</text><text fill="#000000" font-family="sans-serif" font-size="13" lengthAdjust="spacing" textLength="7" x="550.1123" y="431.1835">1</text><text fill="#000000" font-family="sans-serif" font-size="13" lengthAdjust="spacing" textLength="5" x="545.6028" y="512.2166">*</text></g><!--link User to Message--><g id="link_User_Message"><path codeLine="107" d="M634.02,396.51 C640,401.2 646.04,405.75 652,410 C673.41,425.26 683.04,422.88 703,440 C731.21,464.21 758.12,494.43 780.88,522.99 " fill="none" id="User-Message" style="stroke:#000080;stroke-width:1.0;"/><text fill="#000000" font-family="sans-serif" font-size="13" lengthAdjust="spacing" textLength="86" x="722" y="454.4951">sends/receives</text><text fill="#000000" font-family="sans-serif" font-size="13" lengthAdjust="spacing" textLength="7" x="642.1706" y="417.8645">1</text><text fill="#000000" font-family="sans-serif" font-size="13" lengthAdjust="spacing" textLength="5" x="770.1974" y="512.0157">*</text></g><!--link User to Product--><g id="link_User_Product"><path codeLine="108" d="M634.16,399.99 C639.97,403.73 645.94,407.12 652,410 C719.33,441.97 745.03,420.61 817,440 C877.68,456.34 899.89,450.07 950,488 C960.06,495.62 969.48,504.65 978.16,514.33 " fill="none" id="User-Product" style="stroke:#000080;stroke-width:1.0;"/><text fill="#000000" font-family="sans-serif" font-size="13" lengthAdjust="spacing" textLength="30" x="895" y="454.4951">owns</text><text fill="#000000" font-family="sans-serif" font-size="13" lengthAdjust="spacing" textLength="7" x="641.8593" y="403.6043">1</text><text fill="#000000" font-family="sans-serif" font-size="13" lengthAdjust="spacing" textLength="5" x="968.2882" y="503.6562">*</text></g><!--link Admin to Product--><g id="link_Admin_Product"><path codeLine="110" d="M909.02,163.04 C953.15,204.3 1000.94,249.77 1004,256 C1043.53,336.5 1050.83,439.08 1049.53,514.22 " fill="none" id="Admin-Product" style="stroke:#000080;stroke-width:1.0;"/><text fill="#000000" font-family="sans-serif" font-size="13" lengthAdjust="spacing" textLength="53" x="1045" y="338.4951">manages</text><text fill="#000000" font-family="sans-serif" font-size="13" lengthAdjust="spacing" textLength="7" x="917.1174" y="166.989">1</text><text fill="#000000" font-family="sans-serif" font-size="13" lengthAdjust="spacing" textLength="5" x="1044.8994" y="503.5381">*</text></g><!--link Admin to User--><g id="link_Admin_User"><path codeLine="111" d="M758.87,159.62 C719.87,193.95 672.47,235.65 634.08,269.45 " fill="none" id="Admin-User" style="stroke:#000080;stroke-width:1.0;"/><text fill="#000000" font-family="sans-serif" font-size="13" lengthAdjust="spacing" textLength="53" x="699" y="222.4951">manages</text><text fill="#000000" font-family="sans-serif" font-size="13" lengthAdjust="spacing" textLength="7" x="743.7613" y="163.2163">1</text><text fill="#000000" font-family="sans-serif" font-size="13" lengthAdjust="spacing" textLength="5" x="642.1278" y="259.1574">*</text></g><!--link Admin to UserProfile--><g id="link_Admin_UserProfile"><path codeLine="112" d="M758.94,109.39 C668.57,131.21 515.21,177.01 405,256 C318.33,318.12 242.33,411.54 188.91,487.72 " fill="none" id="Admin-UserProfile" style="stroke:#000080;stroke-width:1.0;"/><text fill="#000000" font-family="sans-serif" font-size="13" lengthAdjust="spacing" textLength="67" x="406" y="338.4951">administers</text><text fill="#000000" font-family="sans-serif" font-size="13" lengthAdjust="spacing" textLength="7" x="743.8385" y="107.8063">1</text><text fill="#000000" font-family="sans-serif" font-size="13" lengthAdjust="spacing" textLength="5" x="188.4431" y="477.2508">*</text></g><!--link Admin to Message--><g id="link_Admin_Message"><path codeLine="113" d="M867.35,178.05 C892.3,251.83 919.49,361.83 903,458 C899.33,479.43 893.05,501.81 885.99,522.77 " fill="none" id="Admin-Message" style="stroke:#000080;stroke-width:1.0;"/><text fill="#000000" font-family="sans-serif" font-size="13" lengthAdjust="spacing" textLength="86" x="909" y="338.4951">sends/receives</text><text fill="#000000" font-family="sans-serif" font-size="13" lengthAdjust="spacing" textLength="7" x="863.0085" y="199.8807">1</text><text fill="#000000" font-family="sans-serif" font-size="13" lengthAdjust="spacing" textLength="5" x="883.8978" y="512.0978">*</text></g><!--link Product to Localization--><g id="link_Product_Localization"><path codeLine="115" d="M971.34,720.81 C964.34,729.83 957.16,738.69 950,747 C921.93,779.58 888.62,813.01 858.51,841.6 " fill="none" id="Product-Localization" style="stroke:#000080;stroke-width:1.0;"/><text fill="#000000" font-family="sans-serif" font-size="13" lengthAdjust="spacing" textLength="36" x="919" y="791.4951">tracks</text><text fill="#000000" font-family="sans-serif" font-size="13" lengthAdjust="spacing" textLength="7" x="958.8939" y="742.4746">1</text><text fill="#000000" font-family="sans-serif" font-size="13" lengthAdjust="spacing" textLength="5" x="866.6234" y="831.1982">*</text></g><!--SRC=[fLRBRjim4BphAuXSqYOmYbvzomD1qYPf4TTdWHRNCc4-199oe1RzzovVZYHBJO7ca80xm-NCShdAELcvJd1L5tRFLKCDbQGIr5hogo3uSqshVMrqgzYD5jgGHrxltBLe8Q1NnkZN23pJGnTtQCF0nE0jDVj0_bqKvsHjmP0dgcWD4fGZD_uSi4KyBw3nq0LdIx9UFzp65KZAnHA56gypX1hSyOe73QANbjTgtNpu65T2rrpbnG4CttOt1XYUpAcm2A2ejwE_6xtb0gOLA2fXA80h1mQi6qQbDb1ojTKZiaJBPMk4dOZR4bHbkiO1A_SZbr5JsV3AjMQaW3B9LJdKsJQC-ZmKTVtW4lLHsSG2L0OGIYvpLI9_56GWe1ySb6a5pg64t1wB5cCZ4JPHbkJBwjlpky8YbFDc4JMuNYYqpvKttEkVf2g6_wznP4YAbbbRkQC60r8VmBlE4MVmEVZ0ewweu_hONenRkX4vGrQSbgUQCp2fkebWkOTkg1rhZSHhhGLGbRZjHl1gaZg-beb-mIehC5Zzhz0T7meLd0r3oLoC16FP_gapZmZ-CwAJzYQapJeMlb_kXAOkhLKzMCUcdcmh0nLUy_YUiArow9vRfytHqhDsVCkJhLLd7SXaQO3qB3tW2AZ1pBf2EHQBCthojaJDuslyYuy8zJLaBnA7wvLzmMmzTslbq_Vfn_Vp5FIWag6z68PPPnOKE_66rGL- -3VBy-PyDK9R3ijnwOzCidhMKcHqRoyWeiqTRsmHFY9ddy_8nM8H_lP7-vBiw0pbEDQcE1TdmxQUuGpwP4bIYNh4nCi5NnBlqtwQ9UOfiIJwLTcYY9DkaX07c3sbX9plu6_r2PU1zGKpGPtLNMGTFVAeO65mslJES8l2tyJu_oM8tWOHUCttL341blYtH6ZhTlvJ7Uk9A89aGosl8YxV9W-g8JvXCKeR7E3EEAGiiQ7jKNtL6kwwb3DampblhDytJhRHpcdfioMJkEi56lpquyau6xXsUhNZ81W2EJDXSE0LsZmc-mC0]--></g></svg>