<?xml version="1.0" encoding="us-ascii" standalone="no"?><svg xmlns="http://www.w3.org/2000/svg" xmlns:xlink="http://www.w3.org/1999/xlink" contentStyleType="text/css" height="1087px" preserveAspectRatio="none" style="width:740px;height:1087px;background:#FFFFFF;" version="1.1" viewBox="0 0 740 1087" width="740px" zoomAndPan="magnify"><defs/><g><!--cluster NiotoShield Use Case Diagram--><g id="cluster_NiotoShield Use Case Diagram"><rect fill="none" height="1074" rx="2.5" ry="2.5" style="stroke:#181818;stroke-width:1.0;" width="598" x="136" y="7"/><text fill="#000000" font-family="sans-serif" font-size="14" font-weight="bold" lengthAdjust="spacing" textLength="212" x="329" y="23.5332">NiotoShield Use Case Diagram</text></g><g id="elem_signUp"><ellipse cx="263.6812" cy="617.9655" fill="#ADD8E6" rx="46.1812" ry="15.4655" style="stroke:#00008B;stroke-width:0.5;"/><text fill="#000000" font-family="sans-serif" font-size="14" lengthAdjust="spacing" textLength="49" x="237.7471" y="622.108">Sign Up</text></g><g id="elem_login"><ellipse cx="263.734" cy="372.9517" fill="#ADD8E6" rx="36.234" ry="15.4517" style="stroke:#00008B;stroke-width:0.5;"/><text fill="#000000" font-family="sans-serif" font-size="14" lengthAdjust="spacing" textLength="35" x="246.234" y="376.6802">Login</text></g><g id="elem_verifyCredentials"><ellipse cx="605.0785" cy="373.2157" fill="#ADD8E6" rx="79.0785" ry="18.2157" style="stroke:#00008B;stroke-width:0.5;"/><text fill="#000000" font-family="sans-serif" font-size="14" lengthAdjust="spacing" textLength="112" x="547.6751" y="377.3395">Verify Credentials</text></g><g id="elem_manageProfile"><ellipse cx="263.6476" cy="685.9295" fill="#ADD8E6" rx="72.6476" ry="16.9295" style="stroke:#00008B;stroke-width:0.5;"/><text fill="#000000" font-family="sans-serif" font-size="14" lengthAdjust="spacing" textLength="95" x="213.1476" y="690.4461">Manage Profile</text></g><g id="elem_createProfile"><ellipse cx="604.8041" cy="677.8608" fill="#ADD8E6" rx="69.8041" ry="16.3608" style="stroke:#00008B;stroke-width:0.5;"/><text fill="#000000" font-family="sans-serif" font-size="14" lengthAdjust="spacing" textLength="87" x="558.3041" y="682.3774">Create Profile</text></g><g id="elem_editProfile"><ellipse cx="605.1685" cy="611.0838" fill="#ADD8E6" rx="60.1685" ry="15.5838" style="stroke:#00008B;stroke-width:0.5;"/><text fill="#000000" font-family="sans-serif" font-size="14" lengthAdjust="spacing" textLength="68" x="568.1685" y="615.6004">Edit Profile</text></g><g id="elem_deleteProfile"><ellipse cx="605.1119" cy="746.2224" fill="#ADD8E6" rx="69.1119" ry="16.2224" style="stroke:#00008B;stroke-width:0.5;"/><text fill="#000000" font-family="sans-serif" font-size="14" lengthAdjust="spacing" textLength="85" x="559.6119" y="750.739">Delete Profile</text></g><g id="elem_manageBiometric"><ellipse cx="263.3753" cy="818.1751" fill="#ADD8E6" rx="93.8753" ry="21.1751" style="stroke:#00008B;stroke-width:0.5;"/><text fill="#000000" font-family="sans-serif" font-size="14" lengthAdjust="spacing" textLength="147" x="189.8753" y="821.9036">Manage Biometric Data</text></g><g id="elem_addBiometric"><ellipse cx="604.7516" cy="892.9503" fill="#ADD8E6" rx="82.7516" ry="18.9503" style="stroke:#00008B;stroke-width:0.5;"/><text fill="#000000" font-family="sans-serif" font-size="14" lengthAdjust="spacing" textLength="121" x="544.2516" y="896.6788">Add Biometric Data</text></g><g id="elem_updateBiometric"><ellipse cx="604.7628" cy="818.1526" fill="#ADD8E6" rx="91.2628" ry="20.6526" style="stroke:#00008B;stroke-width:0.5;"/><text fill="#000000" font-family="sans-serif" font-size="14" lengthAdjust="spacing" textLength="141" x="534.2628" y="821.8811">Update Biometric Data</text></g><g id="elem_removeBiometric"><ellipse cx="604.813" cy="968.7626" fill="#ADD8E6" rx="94.313" ry="21.2626" style="stroke:#00008B;stroke-width:0.5;"/><text fill="#000000" font-family="sans-serif" font-size="14" lengthAdjust="spacing" textLength="148" x="530.813" y="972.4911">Remove Biometric Data</text></g><g id="elem_viewGPS"><ellipse cx="263.3351" cy="892.867" fill="#ADD8E6" rx="82.3351" ry="18.867" style="stroke:#00008B;stroke-width:0.5;"/><text fill="#000000" font-family="sans-serif" font-size="14" lengthAdjust="spacing" textLength="120" x="203.3351" y="896.5955">View GPS Location</text></g><g id="elem_viewLogs"><ellipse cx="263.3789" cy="1006.8758" fill="#ADD8E6" rx="79.8789" ry="18.3758" style="stroke:#00008B;stroke-width:0.5;"/><text fill="#000000" font-family="sans-serif" font-size="14" lengthAdjust="spacing" textLength="114" x="205.3373" y="1010.9024">View System Logs</text></g><g id="elem_deleteLogs"><ellipse cx="604.8478" cy="1044.8696" fill="#ADD8E6" rx="84.8478" ry="19.3696" style="stroke:#00008B;stroke-width:0.5;"/><text fill="#000000" font-family="sans-serif" font-size="14" lengthAdjust="spacing" textLength="126" x="541.8478" y="1048.5981">Delete System Logs</text></g><g id="elem_manageAssistant"><ellipse cx="263.5785" cy="536.2157" fill="#ADD8E6" rx="79.0785" ry="18.2157" style="stroke:#00008B;stroke-width:0.5;"/><text fill="#000000" font-family="sans-serif" font-size="14" lengthAdjust="spacing" textLength="112" x="206.1751" y="540.3395">Manage Assistant</text></g><g id="elem_startAssistant"><ellipse cx="605.1774" cy="451.0355" fill="#ADD8E6" rx="113.1774" ry="25.0355" style="stroke:#00008B;stroke-width:0.5;"/><text fill="#000000" font-family="sans-serif" font-size="14" lengthAdjust="spacing" textLength="190" x="510.1774" y="454.764">Start Assistance Conversation</text></g><g id="elem_endAssistant"><ellipse cx="604.8903" cy="536.0781" fill="#ADD8E6" rx="110.8903" ry="24.5781" style="stroke:#00008B;stroke-width:0.5;"/><text fill="#000000" font-family="sans-serif" font-size="14" lengthAdjust="spacing" textLength="185" x="512.3903" y="539.8066">End Assistance Conversation</text></g><g id="elem_manageProducts"><ellipse cx="263.347" cy="221.1694" fill="#ADD8E6" rx="111.347" ry="24.6694" style="stroke:#00008B;stroke-width:0.5;"/><text fill="#000000" font-family="sans-serif" font-size="14" lengthAdjust="spacing" textLength="186" x="170.347" y="224.8979">Manage NiotoShield Products</text></g><g id="elem_addProduct"><ellipse cx="604.8193" cy="299.9639" fill="#ADD8E6" rx="87.8193" ry="19.9639" style="stroke:#00008B;stroke-width:0.5;"/><text fill="#000000" font-family="sans-serif" font-size="14" lengthAdjust="spacing" textLength="133" x="538.3193" y="303.6924">Add Security Product</text></g><g id="elem_removeProduct"><ellipse cx="605.113" cy="221.8226" fill="#ADD8E6" rx="99.613" ry="22.3226" style="stroke:#00008B;stroke-width:0.5;"/><text fill="#000000" font-family="sans-serif" font-size="14" lengthAdjust="spacing" textLength="160" x="525.113" y="225.5511">Remove Security Product</text></g><g id="elem_disableProduct"><ellipse cx="604.8945" cy="141.8789" fill="#ADD8E6" rx="97.3945" ry="21.8789" style="stroke:#00008B;stroke-width:0.5;"/><text fill="#000000" font-family="sans-serif" font-size="14" lengthAdjust="spacing" textLength="155" x="527.3945" y="145.6074">Disable Security Product</text></g><g id="elem_trackLocation"><ellipse cx="263.4659" cy="139.8932" fill="#ADD8E6" rx="89.9659" ry="20.3932" style="stroke:#00008B;stroke-width:0.5;"/><text fill="#000000" font-family="sans-serif" font-size="14" lengthAdjust="spacing" textLength="138" x="194.4659" y="143.6217">Monitor User Location</text></g><g id="elem_removeUser"><ellipse cx="604.8297" cy="64.0659" fill="#ADD8E6" rx="90.8297" ry="20.5659" style="stroke:#00008B;stroke-width:0.5;"/><text fill="#000000" font-family="sans-serif" font-size="14" lengthAdjust="spacing" textLength="140" x="534.8297" y="67.7945">Remove User Account</text></g><!--entity admin--><g id="elem_admin"><ellipse cx="47.5" cy="150.5" fill="#F1F1F1" rx="8" ry="8" style="stroke:#181818;stroke-width:0.5;"/><path d="M47.5,158.5 L47.5,185.5 M34.5,166.5 L60.5,166.5 M47.5,185.5 L34.5,200.5 M47.5,185.5 L60.5,200.5 " fill="none" style="stroke:#181818;stroke-width:0.5;"/><text fill="#000000" font-family="sans-serif" font-size="14" lengthAdjust="spacing" textLength="83" x="6" y="216.5332">Administrator</text></g><!--entity user--><g id="elem_user"><ellipse cx="47.5" cy="655.5" fill="#F1F1F1" rx="8" ry="8" style="stroke:#181818;stroke-width:0.5;"/><path d="M47.5,663.5 L47.5,690.5 M34.5,671.5 L60.5,671.5 M47.5,690.5 L34.5,705.5 M47.5,690.5 L60.5,705.5 " fill="none" style="stroke:#181818;stroke-width:0.5;"/><text fill="#000000" font-family="sans-serif" font-size="14" lengthAdjust="spacing" textLength="29" x="33" y="721.5332">User</text></g><!--link login to verifyCredentials--><g id="link_login_verifyCredentials"><path d="M299.55,373 C352.58,373 448.55,373 519.81,373 " fill="none" id="login-to-verifyCredentials" style="stroke:#000080;stroke-width:1.0;stroke-dasharray:7.0,7.0;"/><polygon fill="#000080" points="525.81,373,516.81,369,520.81,373,516.81,377,525.81,373" style="stroke:#000080;stroke-width:1.0;"/><text fill="#000000" font-family="sans-serif" font-size="13" lengthAdjust="spacing" textLength="55" x="406" y="369.4951">&#171;include&#187;</text></g><!--link manageProfile to createProfile--><g id="link_manageProfile_createProfile"><path d="M335.67,684.32 C394.39,682.94 471.2017,681.1316 529.2417,679.7616 " fill="none" id="manageProfile-to-createProfile" style="stroke:#000080;stroke-width:1.0;stroke-dasharray:7.0,7.0;"/><polygon fill="#000080" points="535.24,679.62,526.1481,675.8335,530.2414,679.738,526.3369,683.8313,535.24,679.62" style="stroke:#000080;stroke-width:1.0;"/><text fill="#000000" font-family="sans-serif" font-size="13" lengthAdjust="spacing" textLength="55" x="406" y="678.4951">&#171;include&#187;</text></g><!--link manageProfile to editProfile--><g id="link_manageProfile_editProfile"><path d="M316.8,674.45 C383.11,659.8 490.4613,636.0843 553.1113,622.2443 " fill="none" id="manageProfile-to-editProfile" style="stroke:#000080;stroke-width:1.0;stroke-dasharray:7.0,7.0;"/><polygon fill="#000080" points="558.97,620.95,549.319,618.9856,554.0877,622.0285,551.0447,626.7972,558.97,620.95" style="stroke:#000080;stroke-width:1.0;"/><text fill="#000000" font-family="sans-serif" font-size="13" lengthAdjust="spacing" textLength="55" x="406" y="641.4951">&#171;include&#187;</text></g><!--link manageProfile to deleteProfile--><g id="link_manageProfile_deleteProfile"><path d="M322.09,696.18 C385.66,707.41 481.2916,724.3158 543.5916,735.3258 " fill="none" id="manageProfile-to-deleteProfile" style="stroke:#000080;stroke-width:1.0;stroke-dasharray:7.0,7.0;"/><polygon fill="#000080" points="549.5,736.37,541.3335,730.8648,544.5763,735.4999,539.9412,738.7427,549.5,736.37" style="stroke:#000080;stroke-width:1.0;"/><text fill="#000000" font-family="sans-serif" font-size="13" lengthAdjust="spacing" textLength="55" x="406" y="709.4951">&#171;include&#187;</text></g><!--link manageBiometric to addBiometric--><g id="link_manageBiometric_addBiometric"><path d="M331.17,832.73 C393.25,846.44 479.0811,865.4062 538.7211,878.5762 " fill="none" id="manageBiometric-to-addBiometric" style="stroke:#000080;stroke-width:1.0;stroke-dasharray:7.0,7.0;"/><polygon fill="#000080" points="544.58,879.87,536.6542,874.0234,539.6976,878.7918,534.9292,881.8352,544.58,879.87" style="stroke:#000080;stroke-width:1.0;"/><text fill="#000000" font-family="sans-serif" font-size="13" lengthAdjust="spacing" textLength="55" x="406" y="847.4951">&#171;include&#187;</text></g><!--link manageBiometric to updateBiometric--><g id="link_manageBiometric_updateBiometric"><path d="M357.72,818 C406.2,818 459.23,818 507.33,818 " fill="none" id="manageBiometric-to-updateBiometric" style="stroke:#000080;stroke-width:1.0;stroke-dasharray:7.0,7.0;"/><polygon fill="#000080" points="513.33,818,504.33,814,508.33,818,504.33,822,513.33,818" style="stroke:#000080;stroke-width:1.0;"/><text fill="#000000" font-family="sans-serif" font-size="13" lengthAdjust="spacing" textLength="55" x="406" y="814.4951">&#171;include&#187;</text></g><!--link manageBiometric to removeBiometric--><g id="link_manageBiometric_removeBiometric"><path d="M324.17,834.05 C341.24,839.95 359.43,847.56 375,857 C390.6,866.46 390.09,874.49 405,885 C440.58,910.09 452.01,912.8 492,930 C510.25,937.85 524.9826,943.379 543.3226,949.649 " fill="none" id="manageBiometric-to-removeBiometric" style="stroke:#000080;stroke-width:1.0;stroke-dasharray:7.0,7.0;"/><polygon fill="#000080" points="549,951.59,541.7779,944.8936,544.2688,949.9725,539.19,952.4635,549,951.59" style="stroke:#000080;stroke-width:1.0;"/><text fill="#000000" font-family="sans-serif" font-size="13" lengthAdjust="spacing" textLength="55" x="406" y="881.4951">&#171;include&#187;</text></g><!--link manageAssistant to startAssistant--><g id="link_manageAssistant_startAssistant"><path d="M317.55,522.72 C374.52,508.45 459.6696,487.1371 523.7796,471.0871 " fill="none" id="manageAssistant-to-startAssistant" style="stroke:#000080;stroke-width:1.0;stroke-dasharray:7.0,7.0;"/><polygon fill="#000080" points="529.6,469.63,519.898,467.9355,524.7497,470.8443,521.8409,475.696,529.6,469.63" style="stroke:#000080;stroke-width:1.0;"/><text fill="#000000" font-family="sans-serif" font-size="13" lengthAdjust="spacing" textLength="55" x="406" y="485.4951">&#171;include&#187;</text></g><!--link manageAssistant to endAssistant--><g id="link_manageAssistant_endAssistant"><path d="M342.81,536 C387.66,536 438.64,536 487.93,536 " fill="none" id="manageAssistant-to-endAssistant" style="stroke:#000080;stroke-width:1.0;stroke-dasharray:7.0,7.0;"/><polygon fill="#000080" points="493.93,536,484.93,532,488.93,536,484.93,540,493.93,536" style="stroke:#000080;stroke-width:1.0;"/><text fill="#000000" font-family="sans-serif" font-size="13" lengthAdjust="spacing" textLength="55" x="406" y="532.4951">&#171;include&#187;</text></g><!--link manageProducts to addProduct--><g id="link_manageProducts_addProduct"><path d="M340.69,238.73 C401.69,252.92 480.276,271.2106 536.936,284.3906 " fill="none" id="manageProducts-to-addProduct" style="stroke:#000080;stroke-width:1.0;stroke-dasharray:7.0,7.0;"/><polygon fill="#000080" points="542.78,285.75,534.9203,279.8149,537.91,284.6172,533.1078,287.6069,542.78,285.75" style="stroke:#000080;stroke-width:1.0;"/><text fill="#000000" font-family="sans-serif" font-size="13" lengthAdjust="spacing" textLength="55" x="406" y="252.4951">&#171;include&#187;</text></g><!--link manageProducts to removeProduct--><g id="link_manageProducts_removeProduct"><path d="M374.17,224.42 C384.59,224.66 395,224.86 405,225 C437.91,225.47 467.8809,225.2725 500.0709,224.7225 " fill="none" id="manageProducts-to-removeProduct" style="stroke:#000080;stroke-width:1.0;stroke-dasharray:7.0,7.0;"/><polygon fill="#000080" points="506.07,224.62,497.003,220.7743,501.0707,224.7054,497.1396,228.7732,506.07,224.62" style="stroke:#000080;stroke-width:1.0;"/><text fill="#000000" font-family="sans-serif" font-size="13" lengthAdjust="spacing" textLength="55" x="406" y="221.4951">&#171;include&#187;</text></g><!--link manageProducts to disableProduct--><g id="link_manageProducts_disableProduct"><path d="M340.69,203.27 C399.44,189.6 474.0861,172.2298 530.5561,159.0898 " fill="none" id="manageProducts-to-disableProduct" style="stroke:#000080;stroke-width:1.0;stroke-dasharray:7.0,7.0;"/><polygon fill="#000080" points="536.4,157.73,526.7276,155.8738,531.5301,158.8632,528.5407,163.6656,536.4,157.73" style="stroke:#000080;stroke-width:1.0;"/><text fill="#000000" font-family="sans-serif" font-size="13" lengthAdjust="spacing" textLength="55" x="406" y="173.4951">&#171;include&#187;</text></g><!--reverse link viewLogs to deleteLogs--><g id="link_viewLogs_deleteLogs"><path d="M341.5712,1015.8214 C363.7912,1018.3614 382.43,1020.47 405,1023 C445.59,1027.55 490.84,1032.56 527.92,1036.65 " fill="none" id="viewLogs-backto-deleteLogs" style="stroke:#000080;stroke-width:1.0;stroke-dasharray:7.0,7.0;"/><polygon fill="#000080" points="335.61,1015.14,344.0975,1020.1363,340.5776,1015.7079,345.0061,1012.188,335.61,1015.14" style="stroke:#000080;stroke-width:1.0;"/><text fill="#000000" font-family="sans-serif" font-size="13" lengthAdjust="spacing" textLength="53" x="407" y="1019.4951">&#171;extend&#187;</text></g><!--reverse link trackLocation to removeUser--><g id="link_trackLocation_removeUser"><path d="M349.301,129.5704 C385.671,124.4304 423.32,118.11 462,109 C493.59,101.56 528.34,90.6 555.55,81.36 " fill="none" id="trackLocation-backto-removeUser" style="stroke:#000080;stroke-width:1.0;stroke-dasharray:7.0,7.0;"/><polygon fill="#000080" points="343.36,130.41,352.8312,133.1112,348.3108,129.7103,351.7117,125.1899,343.36,130.41" style="stroke:#000080;stroke-width:1.0;"/><text fill="#000000" font-family="sans-serif" font-size="13" lengthAdjust="spacing" textLength="53" x="407" y="105.4951">&#171;extend&#187;</text></g><!--link admin to login--><g id="link_admin_login"><path d="M84.82,220.29 C98.08,234.14 113.4,249.58 128,263 C167.98,299.74 213.4694,335.5481 239.7894,355.7381 " fill="none" id="admin-to-login" style="stroke:#000080;stroke-width:1.0;"/><polygon fill="#000080" points="244.55,359.39,239.8436,350.7384,240.5828,356.3468,234.9744,357.0859,244.55,359.39" style="stroke:#000080;stroke-width:1.0;"/></g><!--link admin to manageProducts--><g id="link_admin_manageProducts"><path d="M89,188.57 C114.09,193.26 141.3522,198.3575 171.9522,204.0775 " fill="none" id="admin-to-manageProducts" style="stroke:#000080;stroke-width:1.0;"/><polygon fill="#000080" points="177.85,205.18,169.7382,199.5944,172.9351,204.2613,168.2683,207.4582,177.85,205.18" style="stroke:#000080;stroke-width:1.0;"/></g><!--link admin to trackLocation--><g id="link_admin_trackLocation"><path d="M89,173.24 C118.57,167.58 153.4672,160.8892 188.0672,154.2592 " fill="none" id="admin-to-trackLocation" style="stroke:#000080;stroke-width:1.0;"/><polygon fill="#000080" points="193.96,153.13,184.368,150.8952,189.0493,154.071,185.8736,158.7523,193.96,153.13" style="stroke:#000080;stroke-width:1.0;"/></g><!--link admin to removeUser--><g id="link_admin_removeUser"><path d="M77.6,141.95 C91.14,126.78 108.55,110.94 128,102 C257.18,42.61 420.9226,45.2196 518.9026,53.7496 " fill="none" id="admin-to-removeUser" style="stroke:#000080;stroke-width:1.0;"/><polygon fill="#000080" points="524.88,54.27,516.2608,49.5045,519.8988,53.8363,515.567,57.4744,524.88,54.27" style="stroke:#000080;stroke-width:1.0;"/></g><!--link user to signUp--><g id="link_user_signUp"><path d="M62.28,679.05 C77.91,671.38 104.3,659.06 128,651 C159.53,640.28 190.4427,632.7548 217.5627,626.9548 " fill="none" id="user-to-signUp" style="stroke:#000080;stroke-width:1.0;"/><polygon fill="#000080" points="223.43,625.7,213.7925,623.6707,218.5406,626.7457,215.4656,631.4938,223.43,625.7" style="stroke:#000080;stroke-width:1.0;"/></g><!--link user to login--><g id="link_user_login"><path d="M59.98,646.96 C72.69,607.6 95.76,546.23 128,500 C161.62,451.79 211.1088,411.2217 239.3388,389.9417 " fill="none" id="user-to-login" style="stroke:#000080;stroke-width:1.0;"/><polygon fill="#000080" points="244.13,386.33,234.5354,388.5533,240.1373,389.3397,239.3509,394.9417,244.13,386.33" style="stroke:#000080;stroke-width:1.0;"/></g><!--link user to manageProfile--><g id="link_user_manageProfile"><path d="M62.21,686 C87.77,686 138.29,686 184.8,686 " fill="none" id="user-to-manageProfile" style="stroke:#000080;stroke-width:1.0;"/><polygon fill="#000080" points="190.8,686,181.8,682,185.8,686,181.8,690,190.8,686" style="stroke:#000080;stroke-width:1.0;"/></g><!--link user to manageBiometric--><g id="link_user_manageBiometric"><path d="M62.21,694.46 C95.79,715.17 177.7534,765.7199 225.2834,795.0399 " fill="none" id="user-to-manageBiometric" style="stroke:#000080;stroke-width:1.0;"/><polygon fill="#000080" points="230.39,798.19,224.8302,790.0605,226.1345,795.5649,220.6301,796.8692,230.39,798.19" style="stroke:#000080;stroke-width:1.0;"/></g><!--link user to viewGPS--><g id="link_user_viewGPS"><path d="M56.54,725.16 C66.6,764.21 87.64,823.1 128,857 C144.94,871.22 161.1245,878.4435 182.4145,883.6935 " fill="none" id="user-to-viewGPS" style="stroke:#000080;stroke-width:1.0;"/><polygon fill="#000080" points="188.24,885.13,180.4595,879.0915,183.3854,883.9329,178.5441,886.8589,188.24,885.13" style="stroke:#000080;stroke-width:1.0;"/></g><!--link user to viewLogs--><g id="link_user_viewLogs"><path d="M52.5,725.21 C59.61,777.18 78.66,869.34 128,930 C151.6,959.01 183.7006,976.8907 213.1606,989.3007 " fill="none" id="user-to-viewLogs" style="stroke:#000080;stroke-width:1.0;"/><polygon fill="#000080" points="218.69,991.63,211.9487,984.4498,214.0821,989.6889,208.843,991.8224,218.69,991.63" style="stroke:#000080;stroke-width:1.0;"/></g><!--link user to manageAssistant--><g id="link_user_manageAssistant"><path d="M62.24,661.59 C76.15,638.88 99.62,605.55 128,585 C151.45,568.02 175.6614,558.0685 201.3514,550.3885 " fill="none" id="user-to-manageAssistant" style="stroke:#000080;stroke-width:1.0;"/><polygon fill="#000080" points="207.1,548.67,197.3314,547.4154,202.3095,550.1021,199.6228,555.0802,207.1,548.67" style="stroke:#000080;stroke-width:1.0;"/></g><!--SRC=[ZPNDRXiX4CVl-nGZNzeUuWUeB4jEd5QLd2YAbTufa3NoBbZ09hMgl7k7OPU5jHtvjlpdDp3BVD38Lm_UW5NrpeDGLdAlZAxSNka3iwo5padEd8H_5S0ju_lQcawBEzCO2vlWTTjqCjYC5T96VStilfTNrfhtg3wojsFrKLMCUrpDLg9LMZbl6Ivdm1ome0pc5oUZYW7OgWg1CLqt4cQFodYptIdP240Axa9uQyLg37T6SNu9keLLvtTIUyLP-AV4EYI-RbMDok5REC7XzyiXg1jJAqrQ4xw2z5jQzNg4Eoj5s8irZknl96SgikF9JzQyAeprWMbMonQHi5LS3KRQfYMfLmA3Ep9VCfoaZBaNoXU4H26phsKZ9ti8aaQ6GhrLffNUAeu9y-nyi2MJnPmC0Lu9SOvaGXJOoq64dpj3TcGfu6VPchUpi2LB3jFlR8_EonOUZ5POGKhNb3ubt-7dqnOs9fP1p1wgA2QWTyNqksGFY-msfqYyqHwYyrVEOJapxU479gopiT3wUqp6x0gJHWNfcVK9urYgHcEHkJ5e5uZ2vrwBJpsa5ZaVemnDLlP27sBULrWfekFUbKLAqf3lhUITLVuui4F6-sMMmhDaJ686hvLZVveBj8Z63E_J7FkjI2vE5BuVb2oCE1Cun_cLXn3auNAUPKDURgSE3cxWb-PD9qB3q3o0-Nnvsldm7HOB5Sdb4jcYgScdQE4h-AoXhw2BvZxXaylOIS4fxyqBPvGEanQzocVIgPTZ6tidk9MLVk6aqYKlzSl733Kyt42_ldp78rtKwpKEPScUY-cqtkx_UlmHD0q321RpUJPgQ1T946rIb3gnOqrFsQpxL_J4uhZGyRaFFKsFBzpSBDFJDoed0s0qJPjjj9nsLz-0fsU79vvyqakSb26O94nVp8aXVnMIQHptXTGFxyaEuyJygFu3]--></g></svg>